<?xml version="1.0" encoding="UTF-8"?>
<svg width="115px" height="50px" viewBox="0 0 115 50" version="1.1" xmlns="http://www.w3.org/2000/svg" xmlns:xlink="http://www.w3.org/1999/xlink">
    <g id="HGI-115x50-Copy" stroke="none" stroke-width="1" fill="none" fill-rule="evenodd">
        <g id="revisedhiltonlogo_FINAL-(1)-2" transform="translate(1.000000, 6.000000)">
            <g id="revisedhiltonlogo_FINAL-(1)" transform="translate(0.000000, 0.000000)">
                <path d="M12.0079424,32.3133134 L12.0079424,35.9579539 C10.4538018,37.7706406 8.87857143,38.5311774 6.43214747,38.5311774 C2.16236175,38.5311774 0,35.3804562 0,31.4100945 C0,29.0823986 0.620979263,27.0314747 2.42325115,25.4588479 C3.6849977,24.3439493 5.31021889,23.8414378 6.97371429,23.8414378 C8.11777419,23.8414378 9.01812903,24.1817396 9.9747235,24.7436152 L10.892523,24.0635323 L11.3890461,24.0635323 L11.3890461,28.0088986 L10.5537834,28.0088986 C10.1752074,25.8173756 9.71539631,24.5637005 7.17393779,24.5637005 C5.59115668,24.5637005 4.40778111,25.2216521 3.9674977,26.7729286 C3.564447,28.1067972 3.50560369,29.6174562 3.50560369,31.0101682 C3.50560369,32.3523687 3.564447,33.7265945 3.7855,35.0638479 C4.02660138,36.6963594 4.74652074,37.9096774 6.59253456,37.9096774 C7.37416129,37.9096774 7.8967212,37.8107373 8.43698618,37.2129309 C8.77728802,36.8145668 8.89940092,36.5541982 8.89940092,36.0355438 L8.89940092,32.3133134 L6.77349078,32.3133134 L6.77349078,31.4905484 L13.3293134,31.4905484 L13.3293134,32.3133134 L12.0079424,32.3133134" id="Fill-1" fill="#4E4F4F"></path>
                <path d="M24.5249055,38.2583111 L24.5249055,37.5800507 L22.9048917,37.5800507 L22.9048917,30.9367442 C22.9048917,29.5966267 22.5848986,28.836871 21.2848779,28.2755161 C20.5430876,27.9503157 19.6432535,27.8292442 18.8616267,27.8292442 C17.2952488,27.8292442 14.591841,28.4968295 14.591841,30.4784954 C14.591841,31.2585599 15.1719424,31.8183525 15.9522673,31.8183525 C16.7333733,31.8183525 17.3348249,31.2390323 17.3348249,30.4574055 C17.3348249,29.8963111 16.8523618,29.5372627 16.8523618,29.1568641 C16.8523618,28.6152972 17.9563249,28.456212 18.3184977,28.456212 C19.743235,28.456212 20.0241728,29.0170461 20.0241728,30.2975392 L20.0241728,32.2167166 C18.4380069,32.3781452 16.471182,32.5575392 15.1516336,33.5383479 C14.3327742,34.1397995 13.7537143,35.0188041 13.7537143,36.0798065 C13.7537143,37.7610069 15.0529539,38.5150346 16.611,38.5150346 C18.0372995,38.5150346 19.1810991,37.8977005 20.1038456,36.8416452 C20.2043479,37.0801429 20.3040691,37.3207235 20.4428456,37.5212074 C20.9638433,38.2182143 22.1240461,38.2583111 22.9048917,38.2583111 L24.5249055,38.2583111 Z M20.0241728,32.8986221 L20.0241728,34.7605184 C20.0241728,35.5002258 19.9431982,36.1396912 19.3412258,36.6398594 C19.0412811,36.8793986 18.6585392,37.0408272 18.2773594,37.0408272 C17.2145346,37.0408272 16.611,36.2620645 16.611,35.2596452 C16.611,33.2376221 18.4184793,32.9980829 20.0241728,32.8986221 L20.0241728,32.8986221 Z" id="Fill-4" fill="#4E4F4F"></path>
                <path d="M33.2597535,31.4392558 C32.4398525,31.4392558 31.7194124,30.8792028 31.7194124,30.0194654 C31.7194124,29.3792189 32.1391267,29.0396982 32.1391267,28.8782696 C32.1391267,28.7191843 31.9399447,28.63847 31.7988249,28.63847 C31.4793525,28.63847 30.8581129,29.4208779 30.6974654,29.6385461 C29.9759839,30.5602512 29.7171774,31.8178318 29.7171774,32.9769931 L29.7171774,37.5566175 L31.7397212,37.5566175 L31.7397212,38.2583111 L25.0177834,38.2583111 L25.0177834,37.5566175 L26.6568041,37.5566175 L26.6568041,28.7998986 L25.0177834,28.7998986 L25.0177834,28.1013295 L29.7361843,28.1013295 L29.7361843,29.93797 C30.4975023,28.7397535 31.1984147,27.7828986 32.7603664,27.7828986 C33.9591037,27.7828986 34.8797673,28.5587972 34.8797673,29.7986728 C34.8797673,30.777659 34.2392604,31.4392558 33.2597535,31.4392558" id="Fill-5" fill="#4E4F4F"></path>
                <path d="M47.9234562,38.2325346 L47.9234562,37.5521912 L46.3232304,37.5521912 L46.3232304,23.9015829 L41.6345115,23.9015829 L41.6345115,24.5788018 L43.2409862,24.5788018 L43.2409862,29.4109839 C42.3976521,28.3903387 41.4931313,27.8289839 40.1272373,27.8289839 C39.4448111,27.8289839 38.7621244,28.0297281 38.1822834,28.3301935 C36.3292396,29.3107419 35.4916336,31.2655899 35.4916336,33.3021935 C35.4916336,36.1764032 37.2657857,38.5345622 40.247788,38.5345622 C41.775371,38.5345622 42.4356659,37.8927535 43.2409862,36.7117212 L43.2409862,38.2325346 L47.9234562,38.2325346 Z M40.8513226,28.6512281 C41.733712,28.6512281 42.5174217,29.3695853 42.8991221,30.1090323 C43.3414885,30.9661659 43.3414885,32.3021175 43.3414885,33.2607949 C43.3414885,33.9809747 43.320659,35.177629 43.0407627,35.8767189 C42.6788502,36.7338525 41.8146866,37.7339286 40.8114862,37.7339286 C38.8009194,37.7339286 38.7011982,34.5785207 38.7011982,33.1615945 C38.7011982,31.7056129 38.7621244,28.6512281 40.8513226,28.6512281 L40.8513226,28.6512281 Z" id="Fill-6" fill="#4E4F4F"></path>
                <path d="M58.2363986,32.5148387 C58.0346129,31.2348664 57.834129,30.2949355 56.9340346,29.3162097 C56.0138917,28.3179562 54.6545069,27.8242972 53.3143894,27.8242972 C50.2316244,27.8242972 47.9578249,30.0577396 47.9578249,33.1384217 C47.9578249,36.3586613 50.3537373,38.5345622 53.5146129,38.5345622 C55.7936198,38.5345622 57.1142097,37.3826912 58.1153272,35.4588272 L57.5133548,35.1567995 C56.6361728,36.5799747 55.6334931,37.7802742 53.8119539,37.7802742 C51.4501498,37.7802742 51.2913249,35.5785968 51.2913249,33.7763249 L51.2913249,32.5148387 L58.2363986,32.5148387 Z M55.0346452,31.814447 L51.3512097,31.814447 C51.3722995,30.2165645 51.1322396,28.3767995 53.3143894,28.3767995 C54.6729931,28.3767995 55.0346452,29.2164885 55.0346452,30.3964793 L55.0346452,31.814447 L55.0346452,31.814447 Z" id="Fill-7" fill="#4E4F4F"></path>
                <path d="M66.2088871,38.2583111 L66.2088871,37.5800507 L67.5719171,37.5800507 L67.5719171,31.404106 C67.5719171,30.284 67.5719171,28.9037857 66.0891175,28.9037857 C64.9325599,28.9037857 63.8322419,30.043159 63.5515645,31.1028594 C63.4312742,31.6030276 63.4510622,32.1419908 63.4510622,32.6424194 L63.4510622,37.5800507 L65.0109309,37.5800507 L65.0109309,38.2583111 L58.7740599,38.2583111 L58.7740599,37.5800507 L60.4172465,37.5800507 L60.4172465,28.8045853 L58.7740599,28.8045853 L58.7740599,28.1031521 L63.4510622,28.1031521 L63.4510622,29.6617189 C64.0720415,28.9233134 64.4914954,28.522606 65.3910691,28.1635576 C65.9716912,27.9234977 66.6095945,27.7836797 67.2295323,27.7836797 C67.6890829,27.7836797 68.170765,27.8636129 68.6110484,27.9831221 C70.2727212,28.4635023 70.6708249,29.544553 70.6708249,31.1028594 L70.6708249,37.5800507 L72.2736544,37.5800507 L72.2736544,38.2583111 L66.2088871,38.2583111" id="Fill-8" fill="#4E4F4F"></path>
                <polyline id="Fill-9" fill="#4E4F4F" points="75.6454286 38.2583111 75.6454286 37.5566175 77.3235046 37.5566175 77.3235046 24.8417742 75.6454286 24.8417742 75.6454286 24.1408618 82.1897949 24.1408618 82.1897949 24.8417742 80.507553 24.8417742 80.507553 37.5566175 82.1897949 37.5566175 82.1897949 38.2583111 75.6454286 38.2583111"></polyline>
                <path d="M90.3177235,38.2583111 L90.3177235,37.5800507 L91.6745046,37.5800507 L91.6745046,31.404106 C91.6745046,30.284 91.6745046,28.9037857 90.1956106,28.9037857 C89.0354078,28.9037857 87.9363917,30.043159 87.656235,31.1028594 C87.5367258,31.6030276 87.5575553,32.1419908 87.5575553,32.6424194 L87.5575553,37.5800507 L89.117424,37.5800507 L89.117424,38.2583111 L82.8815945,38.2583111 L82.8815945,37.5800507 L84.5219171,37.5800507 L84.5219171,28.8045853 L82.8815945,28.8045853 L82.8815945,28.1031521 L87.5575553,28.1031521 L87.5575553,29.6617189 C88.1785346,28.9233134 88.5974677,28.522606 89.4962604,28.1635576 C90.0753203,27.9234977 90.7150461,27.7836797 91.3360253,27.7836797 C91.795576,27.7836797 92.2751751,27.8636129 92.7175415,27.9831221 C94.3784332,28.4635023 94.7762765,29.544553 94.7762765,31.1028594 L94.7762765,37.5800507 L96.3775438,37.5800507 L96.3775438,38.2583111 L90.3177235,38.2583111" id="Fill-10" fill="#4E4F4F"></path>
                <path d="M104.321652,38.2583111 L104.321652,37.5800507 L105.679735,37.5800507 L105.679735,31.404106 C105.679735,30.284 105.679735,28.9037857 104.201622,28.9037857 C103.042982,28.9037857 101.943965,30.043159 101.660945,31.1028594 C101.542477,31.6030276 101.562265,32.1419908 101.562265,32.6424194 L101.562265,37.5800507 L103.123435,37.5800507 L103.123435,38.2583111 L96.8896889,38.2583111 L96.8896889,37.5800507 L98.5294908,37.5800507 L98.5294908,28.8045853 L96.8896889,28.8045853 L96.8896889,28.1031521 L101.562265,28.1031521 L101.562265,29.6617189 C102.179339,28.9233134 102.601136,28.522606 103.499929,28.1635576 C104.081853,27.9234977 104.721318,27.7836797 105.341256,27.7836797 C105.801588,27.7836797 106.281968,27.8636129 106.722512,27.9831221 C108.382101,28.4635023 108.782288,29.544553 108.782288,31.1028594 L108.782288,37.5800507 L110.382774,37.5800507 L110.382774,38.2583111 L104.321652,38.2583111" id="Fill-11" fill="#4E4F4F"></path>
                <polygon id="Fill-12" fill="#AC2E38" points="0.300725806 20.9687903 21.2713387 20.9687903 21.2713387 0.231467742 0.300725806 0.231467742"></polygon>
                <path d="M4.18334332,3.75269355 C3.9117788,3.7589424 3.69931797,3.98416129 3.70634793,4.25676728 C3.71285714,4.52572811 3.93937788,4.73923041 4.20964055,4.73246083 C4.47990323,4.72543088 4.69288479,4.49917051 4.68585484,4.22864747 C4.67804378,3.95890553 4.45334562,3.74462212 4.18334332,3.75269355" id="Fill-13" fill="#FFFFFE"></path>
                <path d="M8.35653226,3.19029724 C6.9278894,1.90589862 5.92052304,1.8728318 3.75633871,1.75592627 C3.75633871,1.75592627 2.68804608,1.62417972 1.8819447,1.47576959 C1.7257235,1.44764977 1.49425576,1.42786175 1.44869124,1.49529724 C1.38125576,1.53982028 1.40078341,1.77154839 1.42708065,1.92750922 C1.5728871,2.73491244 1.70046774,3.80346544 1.70046774,3.80346544 C1.81112442,5.96817051 1.84002535,6.9752765 3.11921659,8.40808525 C3.11921659,8.40808525 6.62768433,12.1584355 9.36077419,9.4355 C9.36077419,9.4355 9.5609977,9.20976037 9.49929032,9.02307604 C9.39670507,8.7142788 7.58245622,6.96121659 6.88518894,6.25041014 C6.17021659,5.52137788 5.34276498,4.87279954 5.15686175,4.82358986 C5.13004378,4.81395622 5.08604147,4.80406221 5.04360138,4.81838249 C4.89284793,4.85561521 4.79156452,5.03396774 4.79156452,5.03396774 C4.77568203,5.06443088 4.74261521,5.11702535 4.78349309,5.21752765 C4.90925115,5.48831106 5.33287097,6.03560599 6.21317742,6.91929724 C7.14607834,7.85636406 8.41980184,8.9967788 8.41980184,8.9967788 C6.82608525,10.2220737 4.41064516,8.25264516 4.41064516,8.25264516 C2.84504839,6.94715668 2.37430184,4.39215899 2.49276959,2.55109217 C4.33357604,2.44303917 6.89924885,2.91560829 8.1966659,4.47938249 C8.1966659,4.47938249 9.50319585,6.20432488 9.2360576,7.69805991 C9.22902765,7.74779032 9.24256682,7.78632488 9.25949078,7.80923733 C9.49929032,8.13834332 9.91640092,8.18573041 10.2389977,7.88969124 C10.2645138,7.85896774 10.2598272,7.85454147 10.2915922,7.80090553 C10.7899378,5.48492627 8.35653226,3.19029724 8.35653226,3.19029724" id="Fill-14" fill="#FFFFFE"></path>
                <path d="M17.4866198,4.21667051 C17.4788088,3.94640783 17.2535899,3.73446774 16.9833272,3.73993548 C16.7125438,3.74800691 16.5003433,3.97322581 16.5058111,4.24322811 C16.514924,4.51401152 16.7393618,4.72673272 17.0093641,4.71918203 C17.2798871,4.71189171 17.4936498,4.48615207 17.4866198,4.21667051" id="Fill-15" fill="#FFFFFE"></path>
                <path d="M18.0477143,8.38959908 C19.3321129,6.96121659 19.3654401,5.95515207 19.4823456,3.79096774 C19.4823456,3.79096774 19.6151336,2.72215438 19.7625023,1.91657373 C19.7908825,1.76113364 19.8114516,1.52888479 19.7429747,1.48253917 C19.6984516,1.41510369 19.4667235,1.43437097 19.311023,1.46223041 C18.5036198,1.60725576 17.4348065,1.7340553 17.4348065,1.7340553 C15.2714032,1.84445161 14.2629954,1.87517512 12.8307074,3.15306452 C12.8307074,3.15306452 9.07983641,6.66231336 11.803553,9.39488249 C11.803553,9.39488249 12.0290323,9.59510599 12.2154562,9.53365899 C12.5250346,9.43107373 14.2765346,7.61656452 14.9881221,6.9195576 C15.7174147,6.20432488 16.3662535,5.37635253 16.4159839,5.19149078 C16.4237949,5.16363134 16.43447,5.12014977 16.4214516,5.07823041 C16.3829171,4.92643548 16.2048249,4.82437097 16.2048249,4.82437097 C16.1754032,4.80952995 16.1212465,4.77516129 16.0207442,4.81864286 C15.7504816,4.94440092 15.2026659,5.36645853 14.3176728,6.24780645 C13.3829493,7.18070737 12.2417535,8.45443088 12.2417535,8.45443088 C11.0169793,6.85993318 12.9856267,4.44371198 12.9856267,4.44371198 C14.2913756,2.87889631 16.8463733,2.40893088 18.6871797,2.52791935 C18.7962742,4.36768433 18.3242258,6.93387788 16.758629,8.22999309 C16.758629,8.22999309 15.033947,9.53704378 13.5399516,9.26912442 C13.4902212,9.26287558 13.4522074,9.27667512 13.4295553,9.29359908 C13.0999286,9.53417972 13.0525415,9.95102995 13.3496221,10.2741475 C13.3798249,10.2983618 13.3845115,10.2936751 13.4373664,10.324659 C15.753606,10.823265 18.0477143,8.38959908 18.0477143,8.38959908" id="Fill-16" fill="#FFFFFE"></path>
                <path d="M17.0223825,17.5194263 C17.2923848,17.5134378 17.5056267,17.2884793 17.4985968,17.0166544 C17.4910461,16.7482143 17.2653065,16.5341912 16.9947834,16.5407005 C16.7255622,16.5485115 16.5117995,16.77347 16.5196106,17.0429516 C16.5258594,17.3150369 16.7515991,17.5272373 17.0223825,17.5194263" id="Fill-17" fill="#FFFFFE"></path>
                <path d="M12.8489332,18.0818226 C14.2762742,19.3654401 15.2844217,19.3998088 17.4473041,19.5167143 C17.4473041,19.5167143 18.5161175,19.6502834 19.3222189,19.7976521 C19.4787005,19.8260323 19.7099078,19.8450392 19.7559931,19.7781244 C19.8231682,19.7317788 19.8036406,19.5010922 19.7765622,19.3451313 C19.6320576,18.5372074 19.5042166,17.470477 19.5042166,17.470477 C19.3938203,15.3047304 19.364659,14.2978848 18.0852074,12.8655968 C18.0852074,12.8655968 14.5764793,9.11368433 11.8439101,11.8368802 C11.8439101,11.8368802 11.6436866,12.0634009 11.7051336,12.2490438 C11.8085,12.5591429 13.6222281,14.3101221 14.3189747,15.0222304 C15.033947,15.7510023 15.8619194,16.4001014 16.0470415,16.4506129 C16.0746406,16.4573825 16.1183825,16.4690991 16.1603018,16.453477 C16.311576,16.4180668 16.4133802,16.2378917 16.4133802,16.2378917 C16.4287419,16.2092512 16.4628502,16.1558756 16.4211912,16.0540714 C16.2951728,15.785371 15.8725945,15.2367742 14.9915069,14.3528226 C14.0580853,13.4160161 12.7843618,12.2758618 12.7843618,12.2758618 C14.3783387,11.0505668 16.7948203,13.0199954 16.7948203,13.0199954 C18.3591152,14.3249631 18.8296014,16.8802212 18.711394,18.7215484 C16.8708479,18.8301221 14.3049147,18.3580737 13.0080184,16.7927373 C13.0080184,16.7927373 11.7022696,15.0675346 11.9691475,13.5740599 C11.9766982,13.5251106 11.9615968,13.486576 11.946235,13.4631429 C11.7051336,13.1342972 11.2882834,13.0876912 10.9651659,13.3839908 C10.9396498,13.4139332 10.9443364,13.4191406 10.9125714,13.4714747 C10.415788,15.7871935 12.8489332,18.0818226 12.8489332,18.0818226" id="Fill-18" fill="#FFFFFE"></path>
                <path d="M3.71884562,17.0557097 C3.72561521,17.3272742 3.94979263,17.5392143 4.22135714,17.5327051 C4.49188018,17.5259355 4.70460138,17.3004562 4.69757143,17.0296728 C4.68976037,16.7596705 4.46506221,16.5461682 4.19505991,16.5531982 C3.92349539,16.5602281 3.71077419,16.785447 3.71884562,17.0557097" id="Fill-19" fill="#FFFFFE"></path>
                <path d="M3.15644931,12.8833018 C1.87205069,14.3116843 1.8387235,15.3174885 1.7207765,17.4834954 C1.7207765,17.4834954 1.58902995,18.5504862 1.44192166,19.3571083 C1.41328111,19.5135899 1.39297235,19.7445369 1.46118894,19.7901014 C1.50649309,19.8575369 1.73770046,19.8390507 1.89366129,19.8098894 C2.70054378,19.6653848 3.76935714,19.5365023 3.76935714,19.5365023 C5.93276037,19.4287097 6.94168894,19.3985069 8.37397696,18.1187949 C8.37397696,18.1187949 12.1245876,14.6103272 9.40139171,11.8777581 C9.40139171,11.8777581 9.17565207,11.678576 8.98922811,11.740023 C8.67964977,11.8423479 6.9278894,13.6555553 6.21604147,14.3536037 C5.48622811,15.0675346 4.83843088,15.8957673 4.78791935,16.0801083 C4.78141014,16.1090092 4.76995392,16.1532719 4.78453456,16.1946705 C4.82176728,16.345424 4.99933871,16.44853 4.99933871,16.44853 C5.03032258,16.4631106 5.08239631,16.4961774 5.18341935,16.453477 C5.45368203,16.3282396 6.0014977,15.9059217 6.88570968,15.0248341 C7.82251613,14.0916728 8.96293088,12.8182097 8.96293088,12.8182097 C10.1879654,14.412447 8.21879724,16.8281475 8.21879724,16.8281475 C6.91382949,18.3934839 4.35726959,18.8637097 2.51724424,18.7452419 C2.4078894,16.9052166 2.88045853,14.3387627 4.44579493,13.041606 C4.44579493,13.041606 6.17047696,11.7355968 7.66473272,12.0032558 C7.71316129,12.0105461 7.75247696,11.9954447 7.77486866,11.9798226 C8.10423502,11.7392419 8.15136175,11.3226521 7.85506221,10.9990138 C7.82459908,10.9742788 7.81965207,10.9792258 7.7670576,10.9482419 C5.45003687,10.4496359 3.15644931,12.8833018 3.15644931,12.8833018" id="Fill-20" fill="#FFFFFE"></path>
                <polyline id="Fill-21" fill="#4E4F4F" points="43.2480161 1.45832488 43.2480161 19.7145945 44.6784816 19.9036221 44.6784816 20.9732166 37.5915069 20.9732166 37.5915069 19.9036221 39.1170069 19.7145945 39.1170069 11.4041475 30.0598226 11.4041475 30.0598226 19.7145945 31.458523 19.9036221 31.458523 20.9732166 24.499129 20.9732166 24.499129 19.9036221 25.8973088 19.7145945 25.8973088 1.45832488 24.499129 1.26929724 24.499129 0.230686636 31.458523 0.230686636 31.458523 1.26929724 30.0598226 1.45832488 30.0598226 9.26443779 39.1170069 9.26443779 39.1170069 1.45832488 37.5915069 1.26929724 37.5915069 0.230686636 44.6784816 0.230686636 44.6784816 1.26929724 43.2480161 1.45832488"></polyline>
                <polyline id="Fill-22" fill="#4E4F4F" points="52.9100369 19.8411336 54.2441659 20.0291198 54.2441659 20.9729562 47.7297419 20.9729562 47.7297419 20.0291198 49.0656935 19.8411336 49.0656935 7.34343779 47.7297419 7.15597235 47.7297419 6.21135484 52.9100369 6.21135484 52.9100369 19.8411336"></polyline>
                <polyline id="Fill-23" fill="#4E4F4F" points="57.0733318 20.0569793 58.3767373 19.8742005 58.3767373 1.3294424 57.0733318 1.14588249 57.0733318 0.230686636 62.2538871 0.230686636 62.2538871 19.8742005 63.5885369 20.0569793 63.5885369 20.973477 57.0733318 20.973477 57.0733318 20.0569793"></polyline>
                <path d="M71.502182,6.21135484 L74.997371,6.21135484 L74.997371,7.59599539 L71.502182,7.59599539 L71.502182,16.3777097 C71.502182,18.6439585 71.9770945,19.3683041 74.0431198,19.3683041 C74.8062604,19.3683041 75.4756682,19.3683041 76.1099263,19.2105207 L76.1099263,20.2176267 C74.2344908,20.8789631 72.6452005,21.1625046 71.3105507,21.1625046 C68.3241221,21.1625046 67.6239908,19.809629 67.6239908,17.2270323 L67.6239908,7.59599539 L64.8914217,7.59599539 L64.8914217,6.21135484 L67.7203272,6.21135484 L67.7203272,3.12702765 L71.502182,1.99286175 L71.502182,6.21135484" id="Fill-24" fill="#4E4F4F"></path>
                <path d="M92.5092465,13.7336659 C92.5092465,18.3296935 89.3960184,21.4140207 84.5010876,21.4140207 C79.7647212,21.4140207 76.7452258,19.3987673 76.7452258,13.7336659 C76.7452258,8.98037558 79.8600161,5.80153456 84.7541659,5.80153456 C89.5858272,5.80153456 92.5092465,8.66689171 92.5092465,13.7336659 M88.2511774,13.6399332 C88.2511774,8.98037558 86.8532581,6.93439862 84.5950806,6.93439862 C82.4030369,6.93439862 81.0035553,8.88638249 81.0035553,13.6399332 C81.0035553,18.3296935 82.4030369,20.2808963 84.5950806,20.2808963 C86.948553,20.2808963 88.2511774,18.4244677 88.2511774,13.6399332" id="Fill-25" fill="#4E4F4F"></path>
                <path d="M110.178645,20.0288594 L110.178645,20.9729562 L103.66344,20.9729562 L103.66344,20.0288594 L104.967627,19.8408733 L104.967627,11.4353917 C104.967627,9.10691475 104.109972,8.06778341 102.32827,8.06778341 C101.50238,8.06778341 100.199756,8.63434562 99.2465461,9.29542166 L99.2465461,19.8408733 L100.580675,20.0288594 L100.580675,20.9729562 L94.035788,20.9729562 L94.035788,20.0288594 L95.3686152,19.8408733 L95.3686152,7.43795161 L94.035788,7.25022581 L94.035788,6.21109447 L99.2465461,6.21109447 L99.2465461,8.2573318 C100.8663,6.96668433 102.424866,5.92729263 104.61691,5.92729263 C107.541111,5.92729263 108.843735,7.62776037 108.843735,10.9636037 L108.843735,19.8408733 L110.178645,20.0288594" id="Fill-26" fill="#4E4F4F"></path>
                <path d="M53.0982834,2.3081682 C53.0982834,3.4556129 52.1591336,4.38564977 51.0012742,4.38564977 C49.8421129,4.38564977 48.9032235,3.4556129 48.9032235,2.3081682 C48.9032235,1.16046313 49.8421129,0.230686636 51.0012742,0.230686636 C52.1591336,0.230686636 53.0982834,1.16046313 53.0982834,2.3081682" id="Fill-27" fill="#4E4F4F"></path>
                <path d="M111.822353,27.5417972 L112.353505,26.1563756 L112.898977,26.1563756 L112.898977,28.1099217 L112.542532,28.1099217 L112.542532,26.5833802 L112.533419,26.5833802 L111.949933,28.1099217 L111.684097,28.1099217 L111.100611,26.5833802 L111.089675,26.5833802 L111.089675,28.1099217 L110.736355,28.1099217 L110.736355,26.1563756 L111.284952,26.1563756 L111.822353,27.5417972 Z M110.338772,26.4651728 L109.741226,26.4651728 L109.741226,28.1099217 L109.360306,28.1099217 L109.360306,26.4651728 L108.764583,26.4651728 L108.764583,26.1563756 L110.338772,26.1563756 L110.338772,26.4651728 L110.338772,26.4651728 Z" id="Fill-28" fill="#4E4F4F"></path>
            </g>
        </g>
    </g>
</svg>