<svg xmlns="http://www.w3.org/2000/svg" xmlns:xlink="http://www.w3.org/1999/xlink" xmlns:a="http://ns.adobe.com/AdobeSVGViewerExtensions/3.0/" x="0px" y="0px" width="1273px" height="230px" viewBox="0 0 1273 230" xml:space="preserve"><defs></defs><path fill="#1B3562" d="M112.919,127.301c4.926,7.754,9.961,15.453,15.439,22.938c-2.76-8.85-5.974-17.473-9.293-26.041 c-3.334-8.561-6.865-17.025-10.492-25.441c-1.048-2.405-2.124-4.797-3.189-7.193c2.397-3.779,4.771-7.574,7.134-11.377l7.354-12.112 c0.208-0.353,0.417-0.705,0.626-1.058c2.23,4.272,4.486,8.531,6.785,12.77c4.331,8.058,8.827,16.033,13.409,23.965 c4.615,7.92,9.326,15.784,14.238,23.551c4.926,7.754,9.961,15.453,15.432,22.938c-2.76-8.85-5.968-17.473-9.284-26.041 c-3.341-8.561-6.864-17.025-10.495-25.441c-3.664-8.396-7.414-16.75-11.326-25.014c-3.876-8.291-7.899-16.5-11.995-24.682 l-5.844-11.679l-6.662,11.306c-2.403,4.07-4.72,8.182-7.079,12.28l-6.921,12.368c-0.666,1.225-1.329,2.451-1.992,3.676 c-0.508-1.088-0.998-2.186-1.51-3.27c-3.886-8.291-7.906-16.5-11.997-24.682l-5.85-11.679l-6.665,11.306 c-2.394,4.07-4.719,8.182-7.077,12.28l-6.911,12.368c-4.521,8.305-9.009,16.624-13.273,25.068 c-4.298,8.438-8.472,16.936-12.452,25.559c-3.952,8.631-7.815,17.314-11.196,26.275c6.119-7.361,11.777-15.004,17.331-22.709 C44.7,119.824,50.035,112,55.256,104.104c5.235-7.887,10.264-15.887,15.259-23.918l7.354-12.112 c0.207-0.351,0.414-0.702,0.621-1.053c2.23,4.271,4.486,8.528,6.784,12.765c1.998,3.713,4.032,7.406,6.089,11.089 c-1.309,2.501-2.609,5.009-3.886,7.53c-4.289,8.438-8.466,16.936-12.445,25.559c-3.946,8.631-7.811,17.314-11.189,26.275 c6.121-7.361,11.77-15.004,17.329-22.709c5.533-7.705,10.875-15.529,16.087-23.426c0.292-0.439,0.576-0.882,0.866-1.321 c0.186,0.322,0.369,0.646,0.556,0.968C103.297,111.67,108.008,119.534,112.919,127.301z"></path><path fill="#1B3562" d="M211.282,63.491c-0.104-5.022-0.311-10.043-0.606-15.063c-0.304-5.051-0.711-9.977-1.276-15.149l-0.406-3.72 l-3.334-1.752c-8.035-4.223-16.299-8.078-24.764-11.458c-8.438-3.429-17.088-6.36-25.896-8.788C137.399,2.677,119.129,0,100.854,0 C82.588,0.02,64.325,2.771,47.103,8.428c-8.591,2.871-16.991,6.293-24.91,10.584C14.278,23.267,6.642,28.117,0,34.084 c3.743-2.408,7.649-4.505,11.637-6.415c3.974-1.925,8.01-3.698,12.114-5.264c8.224-3.105,16.582-5.725,25.115-7.56 c17.025-3.781,34.449-5.057,51.678-4.016c17.246,1,34.263,4.346,50.744,9.424c8.236,2.564,16.342,5.559,24.317,8.926 c6.797,2.893,13.477,6.059,20.055,9.439c0.313,3.516,0.563,7.127,0.791,10.676c0.311,4.844,0.53,9.699,0.669,14.549 c0.242,9.706,0.248,19.398-0.282,29.021c-0.524,9.617-1.44,19.192-3.271,28.463c-1.781,9.242-4.456,18.322-8.857,25.938 c-0.551,0.945-1.137,1.863-1.744,2.744c-0.691,0.967-1.367,1.891-2.086,2.852c-1.426,1.889-2.904,3.773-4.422,5.627 c-3.034,3.721-6.247,7.348-9.551,10.914c-6.596,7.154-13.564,14.059-20.668,20.846c-7.085,6.816-14.369,13.453-21.744,20.02 c-3.67,3.299-7.376,6.566-11.114,9.795c-3.704,3.285-7.472,6.498-11.224,9.742c16.983-10.279,33.152-21.799,48.861-34.059 c7.809-6.18,15.438-12.623,22.784-19.492c3.658-3.451,7.236-6.994,10.714-10.721c1.731-1.85,3.435-3.76,5.082-5.74 c0.824-0.973,1.665-1.998,2.457-3.006c0.857-1.105,1.669-2.236,2.429-3.383c3.036-4.592,5.347-9.463,7.209-14.402 c1.855-4.939,3.301-9.949,4.485-14.969c2.297-10.066,3.627-20.186,4.372-30.285C211.282,83.635,211.517,73.55,211.282,63.491z"></path><path d="M261.692,58.715h0.294c2-2.176,10.585-10.938,12.291-12.938c1.646-1.94,2.94-3.41,2.94-4.41 c0-0.647-0.235-1.059-0.823-1.177c-0.529-0.117-0.765-0.234-0.765-0.588c0-0.411,0.294-0.529,0.941-0.529 c1.235,0,4.469,0.177,6.057,0.177c1.823,0,5.058-0.177,6.88-0.177c0.588,0,1,0.118,1,0.529c0,0.412-0.294,0.529-0.882,0.529 c-0.823,0-2.293,0.235-3.411,0.647c-1.823,0.705-3.823,1.94-6.352,4.41c-1.823,1.765-10.703,10.585-12.702,12.702 c2.117,2.765,13.643,15.173,15.937,17.349c2.588,2.47,5.234,5.116,8.41,6.351c1.764,0.706,2.94,0.883,3.646,0.883 c0.412,0,0.765,0.117,0.765,0.47c0,0.412-0.294,0.589-1.412,0.589h-5.116c-1.764,0-2.823,0-4.058-0.118 c-3.176-0.294-4.763-1.588-7.292-3.822c-2.588-2.294-14.173-15.878-15.408-17.583l-0.647-0.883h-0.294v5.352 c0,5.41,0,10.057,0.176,12.585c0.118,1.646,0.647,2.94,2.117,3.176c0.823,0.117,2.117,0.235,2.882,0.235 c0.47,0,0.764,0.176,0.764,0.47c0,0.412-0.47,0.589-1.117,0.589c-3.293,0-6.998-0.177-8.468-0.177c-1.353,0-5.058,0.177-7.41,0.177 c-0.765,0-1.176-0.177-1.176-0.589c0-0.294,0.235-0.47,0.941-0.47c0.882,0,1.588-0.118,2.117-0.235 c1.176-0.235,1.47-1.529,1.706-3.234c0.294-2.47,0.294-7.116,0.294-12.526v-10.35c0-8.939,0-10.586-0.118-12.468 c-0.118-1.999-0.588-2.94-2.529-3.352c-0.47-0.118-1.47-0.177-2.293-0.177c-0.647,0-1-0.117-1-0.529 c0-0.411,0.412-0.529,1.293-0.529c3.117,0,6.822,0.177,8.233,0.177c1.412,0,5.117-0.177,7.116-0.177 c0.823,0,1.235,0.118,1.235,0.529c0,0.412-0.353,0.529-0.824,0.529c-0.588,0-0.941,0.059-1.646,0.177 c-1.588,0.294-2.058,1.294-2.176,3.352c-0.118,1.882-0.118,3.528-0.118,12.468V58.715z"></path><path d="M300.147,70.947c-0.294,0-0.353,0.059-0.471,0.353l-2.764,6.704c-0.529,1.235-0.765,2.47-0.765,3.058 c0,0.883,0.47,1.412,2.058,1.412h0.765c0.647,0,0.765,0.235,0.765,0.529c0,0.411-0.294,0.529-0.824,0.529 c-1.705,0-4.116-0.177-5.763-0.177c-0.529,0-3.293,0.177-5.999,0.177c-0.647,0-0.941-0.118-0.941-0.529 c0-0.294,0.176-0.529,0.588-0.529c0.471,0,1.059-0.06,1.529-0.06c2.352-0.353,3.234-1.881,4.293-4.41l13.525-31.462 c0.588-1.411,1-1.999,1.529-1.999c0.764,0,1,0.47,1.529,1.588c1.235,2.764,9.88,23.229,13.173,30.814 c2,4.528,3.47,5.175,4.411,5.352c0.764,0.117,1.353,0.177,1.94,0.177c0.471,0,0.706,0.176,0.706,0.529 c0,0.411-0.294,0.529-2.234,0.529c-1.823,0-5.587,0-9.938-0.118c-0.941-0.059-1.529-0.059-1.529-0.411 c0-0.294,0.117-0.471,0.646-0.529c0.353-0.06,0.706-0.529,0.471-1.117L312.849,71.3c-0.118-0.294-0.294-0.353-0.529-0.353H300.147z  M311.203,68.184c0.235,0,0.294-0.118,0.235-0.295l-4.881-12.702c-0.059-0.176-0.118-0.471-0.235-0.471 c-0.177,0-0.235,0.295-0.294,0.471l-4.999,12.644c-0.118,0.235,0,0.354,0.176,0.354H311.203z"></path><path d="M338.307,76.71c0.118,3.882,0.765,5.058,1.764,5.41c0.882,0.294,1.882,0.354,2.705,0.354c0.588,0,0.882,0.235,0.882,0.529 c0,0.411-0.471,0.529-1.176,0.529c-3.352,0-5.763-0.177-6.704-0.177c-0.47,0-2.94,0.177-5.586,0.177 c-0.706,0-1.176-0.06-1.176-0.529c0-0.294,0.353-0.529,0.823-0.529c0.706,0,1.646-0.06,2.353-0.235 c1.353-0.353,1.529-1.705,1.587-6.058l0.471-29.639c0-1,0.353-1.705,0.882-1.705c0.647,0,1.353,0.765,2.235,1.646 c0.647,0.646,8.41,8.586,15.937,15.937c3.528,3.47,10.409,10.526,11.173,11.232h0.235l-0.529-22.229 c-0.059-3.058-0.529-3.939-1.765-4.41c-0.764-0.294-1.999-0.294-2.705-0.294c-0.646,0-0.823-0.235-0.823-0.529 c0-0.412,0.529-0.471,1.294-0.471c2.705,0,5.469,0.117,6.586,0.117c0.588,0,2.529-0.117,5.057-0.117 c0.706,0,1.176,0.059,1.176,0.471c0,0.294-0.294,0.529-0.882,0.529c-0.529,0-0.941,0-1.588,0.176 c-1.412,0.412-1.823,1.294-1.882,4.117l-0.588,31.521c0,1.117-0.412,1.588-0.823,1.588c-0.882,0-1.588-0.529-2.117-1.059 c-3.235-2.999-9.704-9.174-15.114-14.408c-5.646-5.41-11.115-11.467-12.114-12.35h-0.176L338.307,76.71z"></path><path d="M384.758,78.769c-5.116-4.293-6.469-9.938-6.469-14.761c0-3.411,1.117-9.292,6.057-13.702 c3.764-3.293,8.704-5.293,16.407-5.293c3.234,0,5.175,0.235,7.527,0.529c1.941,0.294,3.646,0.647,5.175,0.823 c0.588,0.06,0.764,0.295,0.764,0.589c0,0.411-0.118,0.999-0.235,2.764c-0.118,1.646-0.118,4.41-0.177,5.41 c-0.059,0.706-0.235,1.235-0.706,1.235c-0.412,0-0.529-0.412-0.529-1.059c-0.059-1.588-0.706-3.353-2-4.646 c-1.764-1.705-5.234-2.94-9.997-2.94c-4.528,0-7.41,0.823-9.762,2.823c-3.822,3.293-4.763,8.115-4.763,12.996 c0,11.879,9.174,17.524,16.113,17.524c4.587,0,7.116-0.353,9.174-2.646c0.882-1,1.588-2.411,1.764-3.353 c0.118-0.765,0.235-1,0.647-1c0.353,0,0.588,0.471,0.588,0.883c0,0.588-0.588,4.939-1.117,6.645 c-0.235,0.883-0.471,1.118-1.353,1.471c-2.058,0.823-5.999,1.117-9.351,1.117C395.461,84.179,389.463,82.709,384.758,78.769z"></path><path d="M425.389,60.186c0-7.586,0-8.998-0.059-10.586c-0.118-1.705-0.588-2.234-2.235-2.705c-0.412-0.117-1.294-0.176-2.058-0.176 c-0.529,0-0.882-0.177-0.882-0.529c0-0.354,0.412-0.471,1.176-0.471c2.705,0,5.998,0.117,7.468,0.117c1.647,0,13.114,0.06,14.114,0 c0.941-0.059,1.765-0.234,2.176-0.294c0.294-0.059,0.588-0.235,0.823-0.235c0.294,0,0.353,0.235,0.353,0.471 c0,0.354-0.294,0.941-0.412,3.234c-0.059,0.529-0.176,2.705-0.294,3.293c-0.059,0.235-0.176,0.824-0.588,0.824 c-0.353,0-0.412-0.235-0.412-0.647c0-0.353-0.059-1.234-0.353-1.823c-0.412-0.882-0.823-1.588-3.411-1.822 c-0.882-0.118-7.057-0.235-8.116-0.235c-0.235,0-0.353,0.176-0.353,0.47v12.35c0,0.295,0.059,0.529,0.353,0.529 c1.176,0,7.88,0,9.057-0.117c1.235-0.117,1.999-0.235,2.47-0.765c0.412-0.353,0.588-0.646,0.823-0.646s0.412,0.235,0.412,0.529 s-0.118,1.117-0.412,3.646c-0.118,1-0.235,2.999-0.235,3.353c0,0.411-0.059,1.117-0.529,1.117c-0.353,0-0.47-0.177-0.47-0.412 c-0.059-0.529-0.059-1.176-0.176-1.822c-0.294-1-0.941-1.765-2.882-1.941c-0.941-0.117-6.822-0.235-8.115-0.235 c-0.235,0-0.294,0.235-0.294,0.529v3.999c0,1.706-0.059,5.939,0,7.41c0.117,3.411,1.705,4.175,6.998,4.175 c1.353,0,3.528-0.059,4.881-0.646c1.294-0.588,1.882-1.646,2.235-3.705c0.118-0.529,0.235-0.765,0.588-0.765 c0.412,0,0.47,0.647,0.47,1.177c0,1.117-0.412,4.528-0.706,5.527c-0.353,1.294-0.823,1.294-2.764,1.294 c-3.881,0-6.998-0.059-9.527-0.177c-2.529-0.059-4.469-0.117-5.999-0.117c-0.588,0-1.706,0.059-2.94,0.059 c-1.235,0.059-2.529,0.118-3.587,0.118c-0.647,0-1-0.177-1-0.529c0-0.235,0.176-0.529,0.823-0.529c0.765,0,1.353-0.06,1.823-0.177 c1.059-0.235,1.353-1.176,1.529-2.646c0.235-2.117,0.235-6.057,0.235-10.644V60.186z"></path><path d="M465.021,69.007c0,6.409,0,9.585,1.117,10.526c0.882,0.765,2.881,1.059,6.88,1.059c2.764,0,4.764-0.059,6.057-1.412 c0.647-0.646,1.176-2.058,1.294-2.999c0.059-0.47,0.176-0.765,0.588-0.765c0.353,0,0.471,0.529,0.471,1.118 c0,0.588-0.353,4.293-0.765,5.763c-0.353,1.117-0.588,1.353-3.293,1.353c-3.705,0-6.704-0.059-9.292-0.177 c-2.587-0.059-4.763-0.117-6.88-0.117c-0.588,0-1.706,0.059-2.94,0.059c-1.235,0.059-2.529,0.118-3.587,0.118 c-0.647,0-1-0.177-1-0.529c0-0.235,0.176-0.529,0.823-0.529c0.765,0,1.353-0.06,1.823-0.177c1.059-0.235,1.353-1.176,1.529-2.646 c0.235-2.117,0.235-6.057,0.235-10.644v-8.821c0-7.586,0-8.998-0.059-10.586c-0.118-1.705-0.588-2.234-2.235-2.705 c-0.412-0.117-1.059-0.176-1.706-0.176c-0.588,0-0.882-0.177-0.882-0.529c0-0.354,0.353-0.471,1.117-0.471 c2.411,0,5.704,0.117,7.116,0.117c1.235,0,5.469-0.117,7.468-0.117c0.765,0,1.118,0.117,1.118,0.471 c0,0.353-0.294,0.529-0.941,0.529c-0.588,0-1.412,0.059-2,0.176c-1.412,0.235-1.823,0.941-1.941,2.705 c-0.117,1.588-0.117,3-0.117,10.586V69.007z"></path><path d="M493.948,70.947c-0.294,0-0.353,0.059-0.471,0.353l-2.764,6.704c-0.529,1.235-0.765,2.47-0.765,3.058 c0,0.883,0.47,1.412,2.058,1.412h0.765c0.647,0,0.765,0.235,0.765,0.529c0,0.411-0.294,0.529-0.824,0.529 c-1.705,0-4.116-0.177-5.763-0.177c-0.529,0-3.293,0.177-5.999,0.177c-0.647,0-0.941-0.118-0.941-0.529 c0-0.294,0.176-0.529,0.588-0.529c0.471,0,1.059-0.06,1.529-0.06c2.352-0.353,3.234-1.881,4.293-4.41l13.525-31.462 c0.588-1.411,1-1.999,1.529-1.999c0.764,0,1,0.47,1.529,1.588c1.235,2.764,9.879,23.229,13.173,30.814 c2,4.528,3.47,5.175,4.411,5.352c0.765,0.117,1.353,0.177,1.94,0.177c0.471,0,0.706,0.176,0.706,0.529 c0,0.411-0.294,0.529-2.235,0.529c-1.823,0-5.587,0-9.938-0.118c-0.941-0.059-1.529-0.059-1.529-0.411 c0-0.294,0.117-0.471,0.646-0.529c0.353-0.06,0.706-0.529,0.471-1.117L506.65,71.3c-0.118-0.294-0.294-0.353-0.529-0.353H493.948z  M505.004,68.184c0.235,0,0.294-0.118,0.235-0.295l-4.881-12.702c-0.059-0.176-0.118-0.471-0.235-0.471 c-0.177,0-0.235,0.295-0.294,0.471L494.83,67.83c-0.118,0.235,0,0.354,0.177,0.354H505.004z"></path><path d="M528.875,60.186c0-7.586,0-8.998-0.059-10.586c-0.118-1.705-0.588-2.234-2.235-2.705c-0.412-0.117-1.294-0.176-2.058-0.176 c-0.529,0-0.882-0.177-0.882-0.529c0-0.354,0.412-0.471,1.176-0.471c2.705,0,5.998,0.117,7.057,0.117 c1.764,0,6.469-0.117,8.057-0.117c3.293,0,7.057,0.294,9.821,2.117c1.47,1,3.646,3.528,3.646,6.88c0,3.705-2.117,6.999-7.174,11.057 c4.587,5.646,8.233,10.173,11.35,13.29c2.882,2.882,4.705,3.117,5.528,3.293c0.529,0.118,0.823,0.118,1.235,0.118 s0.647,0.294,0.647,0.529c0,0.411-0.353,0.529-1,0.529h-4.94c-2.881,0-4.292-0.294-5.646-1c-2.234-1.117-4.175-3.47-7.057-7.351 c-2.058-2.705-4.234-6.058-4.881-6.822c-0.294-0.294-0.588-0.353-0.941-0.353l-4.646-0.118c-0.235,0-0.412,0.118-0.412,0.412v0.706 c0,4.646,0.059,8.526,0.294,10.644c0.177,1.471,0.412,2.411,2,2.646c0.765,0.117,1.882,0.177,2.529,0.177 c0.412,0,0.647,0.294,0.647,0.529c0,0.353-0.412,0.529-1.059,0.529c-3,0-7.292-0.177-8.057-0.177c-1,0-4.293,0.177-6.351,0.177 c-0.647,0-1-0.177-1-0.529c0-0.235,0.177-0.529,0.823-0.529c0.765,0,1.353-0.06,1.823-0.177c1.059-0.235,1.353-1.176,1.529-2.646 c0.235-2.117,0.235-6.057,0.235-10.644V60.186z M535.461,64.066c0,0.529,0.118,0.706,0.471,0.883c1.117,0.353,2.646,0.47,3.94,0.47 c2.058,0,2.764-0.176,3.646-0.823c1.588-1.117,3.352-3.293,3.352-7.409c0-7.058-4.822-8.88-7.88-8.88 c-1.293,0-2.529,0.059-3.058,0.176c-0.353,0.118-0.471,0.294-0.471,0.706V64.066z"></path><path d="M569.21,60.186c0-7.586,0-8.998-0.059-10.586c-0.118-1.705-0.647-2.293-1.765-2.646c-0.588-0.177-1.235-0.235-1.882-0.235 c-0.529,0-0.823-0.118-0.823-0.588c0-0.295,0.412-0.412,1.235-0.412c1.941,0,5.469,0.117,6.939,0.117 c1.294,0,4.646-0.117,6.646-0.117c0.646,0,1.058,0.117,1.058,0.412c0,0.47-0.294,0.588-0.823,0.588s-0.941,0.059-1.529,0.176 c-1.412,0.235-1.823,0.941-1.94,2.705c-0.118,1.588-0.118,3-0.118,10.586v8.821c0,4.822,0,8.82,0.235,10.938 c0.177,1.353,0.529,2.117,2.059,2.353c0.706,0.117,1.882,0.177,2.646,0.177c0.588,0,0.824,0.294,0.824,0.529 c0,0.353-0.412,0.529-1,0.529c-3.411,0-6.939-0.177-8.351-0.177c-1.176,0-4.705,0.177-6.763,0.177c-0.647,0-1-0.177-1-0.529 c0-0.235,0.177-0.529,0.823-0.529c0.765,0,1.353-0.06,1.823-0.177c1.059-0.235,1.353-0.94,1.529-2.411 c0.235-2.059,0.235-6.057,0.235-10.879V60.186z"></path><path d="M595.377,70.947c-0.294,0-0.353,0.059-0.471,0.353l-2.764,6.704c-0.529,1.235-0.765,2.47-0.765,3.058 c0,0.883,0.47,1.412,2.058,1.412h0.765c0.647,0,0.765,0.235,0.765,0.529c0,0.411-0.294,0.529-0.824,0.529 c-1.705,0-4.116-0.177-5.763-0.177c-0.529,0-3.293,0.177-5.999,0.177c-0.647,0-0.941-0.118-0.941-0.529 c0-0.294,0.176-0.529,0.588-0.529c0.471,0,1.059-0.06,1.529-0.06c2.352-0.353,3.234-1.881,4.293-4.41l13.525-31.462 c0.588-1.411,1-1.999,1.529-1.999c0.764,0,1,0.47,1.529,1.588c1.235,2.764,9.879,23.229,13.173,30.814 c2,4.528,3.47,5.175,4.411,5.352c0.765,0.117,1.353,0.177,1.94,0.177c0.471,0,0.706,0.176,0.706,0.529 c0,0.411-0.294,0.529-2.235,0.529c-1.823,0-5.587,0-9.938-0.118c-0.941-0.059-1.529-0.059-1.529-0.411 c0-0.294,0.117-0.471,0.646-0.529c0.353-0.06,0.706-0.529,0.471-1.117L608.079,71.3c-0.118-0.294-0.294-0.353-0.529-0.353H595.377z  M606.433,68.184c0.235,0,0.294-0.118,0.235-0.295l-4.881-12.702c-0.059-0.176-0.118-0.471-0.235-0.471 c-0.177,0-0.235,0.295-0.294,0.471l-4.999,12.644c-0.118,0.235,0,0.354,0.177,0.354H606.433z"></path><path d="M649.118,56.128c0-8.939,0-10.586-0.118-12.468c-0.118-1.999-0.588-2.94-2.529-3.352c-0.47-0.118-1.47-0.177-2.293-0.177 c-0.647,0-1-0.117-1-0.529c0-0.411,0.412-0.529,1.293-0.529c3.117,0,6.822,0.177,8.057,0.177c2,0,6.469-0.177,8.292-0.177 c3.705,0,7.645,0.354,10.82,2.529c1.647,1.117,3.999,4.116,3.999,8.057c0,4.352-1.823,8.351-7.763,13.173 c5.234,6.586,9.292,11.82,12.761,15.466c3.293,3.411,5.705,3.822,6.586,3.999c0.647,0.117,1.176,0.177,1.647,0.177 c0.47,0,0.706,0.176,0.706,0.47c0,0.471-0.412,0.589-1.118,0.589h-5.586c-3.293,0-4.764-0.294-6.292-1.118 c-2.529-1.353-4.763-4.116-8.057-8.645c-2.352-3.234-5.058-7.233-5.822-8.115c-0.294-0.353-0.647-0.411-1.059-0.411l-5.116-0.118 c-0.294,0-0.471,0.118-0.471,0.471v0.823c0,5.469,0,10.115,0.294,12.585c0.176,1.705,0.529,2.999,2.293,3.234 c0.882,0.117,2.176,0.235,2.881,0.235c0.471,0,0.706,0.176,0.706,0.47c0,0.412-0.412,0.589-1.176,0.589 c-3.411,0-7.763-0.177-8.645-0.177c-1.117,0-4.822,0.177-7.174,0.177c-0.765,0-1.176-0.177-1.176-0.589 c0-0.294,0.235-0.47,0.941-0.47c0.882,0,1.588-0.118,2.117-0.235c1.176-0.235,1.47-1.529,1.706-3.234 c0.294-2.47,0.294-7.116,0.294-12.526V56.128z M656.057,60.773c0,0.646,0.118,0.882,0.529,1.059c1.235,0.411,3,0.588,4.47,0.588 c2.352,0,3.117-0.235,4.175-1c1.764-1.293,3.469-3.998,3.469-8.82c0-8.351-5.528-10.762-8.998-10.762 c-1.47,0-2.528,0.059-3.117,0.234c-0.412,0.118-0.529,0.354-0.529,0.824V60.773z"></path><path d="M694.57,70.947c-0.294,0-0.353,0.059-0.471,0.353l-2.764,6.704c-0.529,1.235-0.765,2.47-0.765,3.058 c0,0.883,0.47,1.412,2.058,1.412h0.765c0.647,0,0.765,0.235,0.765,0.529c0,0.411-0.294,0.529-0.824,0.529 c-1.705,0-4.116-0.177-5.763-0.177c-0.529,0-3.293,0.177-5.999,0.177c-0.647,0-0.941-0.118-0.941-0.529 c0-0.294,0.176-0.529,0.588-0.529c0.471,0,1.059-0.06,1.529-0.06c2.352-0.353,3.234-1.881,4.293-4.41l13.525-31.462 c0.588-1.411,1-1.999,1.529-1.999c0.764,0,1,0.47,1.529,1.588c1.235,2.764,9.879,23.229,13.173,30.814 c2,4.528,3.47,5.175,4.411,5.352c0.765,0.117,1.353,0.177,1.94,0.177c0.471,0,0.706,0.176,0.706,0.529 c0,0.411-0.294,0.529-2.235,0.529c-1.823,0-5.587,0-9.938-0.118c-0.941-0.059-1.529-0.059-1.529-0.411 c0-0.294,0.117-0.471,0.646-0.529c0.353-0.06,0.706-0.529,0.471-1.117L707.272,71.3c-0.118-0.294-0.294-0.353-0.529-0.353H694.57z  M705.626,68.184c0.235,0,0.294-0.118,0.235-0.295l-4.881-12.702c-0.059-0.176-0.118-0.471-0.235-0.471 c-0.177,0-0.235,0.295-0.294,0.471l-4.999,12.644c-0.118,0.235,0,0.354,0.177,0.354H705.626z"></path><path d="M729.497,60.186c0-7.586,0-8.998-0.059-10.586c-0.118-1.705-0.588-2.234-2.235-2.705c-0.412-0.117-1.294-0.176-2.058-0.176 c-0.529,0-0.882-0.177-0.882-0.529c0-0.354,0.412-0.471,1.176-0.471c2.705,0,5.998,0.117,7.468,0.117 c1.588,0,5.293-0.117,8.41-0.117c6.469,0,15.172,0,20.818,5.704c2.587,2.588,4.881,6.763,4.881,12.702 c0,6.293-2.705,11.057-5.646,13.938c-2.352,2.353-7.821,5.881-17.348,5.881c-1.882,0-4.117-0.176-6.175-0.294 c-2.058-0.177-3.94-0.294-5.234-0.294c-0.588,0-1.705,0.059-2.94,0.059c-1.235,0.059-2.528,0.118-3.587,0.118 c-0.647,0-1-0.177-1-0.529c0-0.235,0.177-0.529,0.823-0.529c0.765,0,1.353-0.06,1.823-0.177c1.059-0.235,1.353-1.176,1.529-2.646 c0.235-2.117,0.235-6.057,0.235-10.644V60.186z M736.436,65.713c0,5.293,0.059,9.115,0.118,10.115 c0.059,1.235,0.176,2.999,0.588,3.528c0.647,0.941,2.705,2,6.763,2c4.705,0,8.174-0.823,11.291-3.411 c3.352-2.764,4.411-7.233,4.411-12.408c0-6.352-2.529-10.468-4.822-12.468c-4.763-4.233-10.409-4.763-14.466-4.763 c-1.059,0-2.764,0.117-3.176,0.353c-0.471,0.177-0.647,0.411-0.647,1c-0.059,1.705-0.059,5.821-0.059,9.762V65.713z"></path><path d="M779.182,78.769c-5.116-4.293-6.469-9.938-6.469-14.761c0-3.411,1.117-9.292,6.057-13.702 c3.764-3.293,8.704-5.293,16.407-5.293c3.234,0,5.175,0.235,7.527,0.529c1.941,0.294,3.646,0.647,5.175,0.823 c0.588,0.06,0.764,0.295,0.764,0.589c0,0.411-0.118,0.999-0.235,2.764c-0.118,1.646-0.118,4.41-0.177,5.41 c-0.059,0.706-0.235,1.235-0.706,1.235c-0.412,0-0.529-0.412-0.529-1.059c-0.059-1.588-0.706-3.353-2-4.646 c-1.764-1.705-5.234-2.94-9.997-2.94c-4.528,0-7.41,0.823-9.762,2.823c-3.822,3.293-4.763,8.115-4.763,12.996 c0,11.879,9.174,17.524,16.113,17.524c4.587,0,7.116-0.353,9.174-2.646c0.882-1,1.588-2.411,1.764-3.353 c0.118-0.765,0.235-1,0.647-1c0.353,0,0.588,0.471,0.588,0.883c0,0.588-0.588,4.939-1.117,6.645 c-0.235,0.883-0.471,1.118-1.353,1.471c-2.058,0.823-5.999,1.117-9.351,1.117C789.885,84.179,783.887,82.709,779.182,78.769z"></path><path d="M814.167,64.596c0-8.527,5.999-19.583,21.7-19.583c13.056,0,21.171,7.233,21.171,18.701s-8.351,20.465-21.7,20.465 C820.282,84.179,814.167,73.476,814.167,64.596z M849.333,65.537c0-11.056-6.646-17.878-14.996-17.878 c-5.763,0-12.526,3.059-12.526,15.408c0,10.291,5.881,18.406,15.643,18.406C841.1,81.474,849.333,79.769,849.333,65.537z  M845.393,36.31c0.353,0.706,0,0.882-0.294,0.882s-0.823-0.117-2,0c-3.234,0.412-7.88,2.294-10.056,3.47 c-0.47,0.235-0.882,0.471-1,0.471s-0.353-0.118-0.353-0.353c0-0.235,0.235-0.471,0.529-0.765c2.353-2.235,8.527-6.822,9.468-7.41 c0.588-0.411,1-0.529,1.176-0.529c0.412,0,0.529,0.177,0.824,0.706C844.158,33.604,844.688,34.722,845.393,36.31z"></path><path d="M863.676,50.6c-0.647-1.823-1.059-2.999-1.823-3.47c-0.529-0.353-1.529-0.411-2-0.411c-0.529,0-0.823-0.177-0.823-0.529 c0-0.354,0.412-0.471,1.176-0.471c2.646,0,5.528,0.117,5.998,0.117c0.471,0,3-0.117,5.999-0.117c0.765,0,1.117,0.117,1.117,0.471 c0,0.353-0.412,0.529-0.941,0.529c-0.412,0-0.882,0.059-1.293,0.235c-0.471,0.176-0.529,0.47-0.529,0.999 c0,0.647,0.47,2.294,1.117,4.587c0.882,3.294,5.587,18.407,6.351,20.7h0.177l9.879-25.522c0.529-1.411,1.059-1.822,1.529-1.822 c0.588,0,1.058,0.765,1.705,2.352l10.35,24.641h0.176c1-2.882,4.94-16.055,6.763-21.876c0.353-1.177,0.529-2.176,0.529-2.882 c0-0.823-0.471-1.411-2.529-1.411c-0.471,0-0.882-0.235-0.882-0.529c0-0.354,0.412-0.471,1.235-0.471 c2.705,0,5.057,0.117,5.528,0.117c0.353,0,2.587-0.117,4.293-0.117c0.588,0,0.941,0.117,0.941,0.412 c0,0.353-0.235,0.588-0.706,0.588c-0.529,0-1.235,0.059-1.823,0.235c-1.235,0.47-1.823,2.352-2.882,5.233 c-2.411,6.292-7.704,22.171-10.232,29.639c-0.588,1.765-0.882,2.353-1.646,2.353c-0.706,0-1.059-0.588-1.823-2.411l-10.526-24.641 h-0.118c-0.882,2.117-7.821,19.818-9.938,24.405c-0.941,2.059-1.235,2.646-2,2.646c-0.646,0-0.941-0.529-1.411-1.823L863.676,50.6z"></path><path d="M943.408,56.128c0-8.939,0-10.586-0.118-12.468c-0.118-1.999-0.588-2.94-2.529-3.352c-0.47-0.118-1.47-0.177-2.293-0.177 c-0.647,0-1-0.117-1-0.529c0-0.411,0.412-0.529,1.293-0.529c3.117,0,6.822,0.177,8.468,0.177c2.411,0,5.822-0.177,8.527-0.177 c7.351,0,9.997,2.47,10.938,3.353c1.294,1.234,2.94,3.881,2.94,6.998c0,8.351-6.116,14.231-14.467,14.231 c-0.294,0-0.941,0-1.235-0.06c-0.294-0.059-0.706-0.117-0.706-0.528c0-0.471,0.412-0.647,1.646-0.647c3.293,0,7.88-3.705,7.88-9.703 c0-1.94-0.177-5.881-3.47-8.821c-2.117-1.94-4.528-2.293-5.881-2.293c-0.882,0-1.764,0.059-2.293,0.235 c-0.294,0.117-0.47,0.47-0.47,1.117v23.522c0,5.41,0,10.057,0.294,12.585c0.176,1.646,0.529,2.94,2.293,3.176 c0.823,0.117,2.117,0.235,2.999,0.235c0.647,0,0.941,0.176,0.941,0.47c0,0.412-0.47,0.589-1.117,0.589 c-3.881,0-7.586-0.177-9.115-0.177c-1.353,0-5.058,0.177-7.41,0.177c-0.765,0-1.176-0.177-1.176-0.589 c0-0.294,0.235-0.47,0.941-0.47c0.882,0,1.588-0.118,2.117-0.235c1.176-0.235,1.47-1.529,1.706-3.234 c0.294-2.47,0.294-7.116,0.294-12.526V56.128z"></path><path d="M980.746,60.186c0-7.586,0-8.998-0.059-10.586c-0.118-1.705-0.588-2.234-2.235-2.705c-0.412-0.117-1.294-0.176-2.058-0.176 c-0.529,0-0.882-0.177-0.882-0.529c0-0.354,0.412-0.471,1.176-0.471c2.705,0,5.998,0.117,7.057,0.117 c1.764,0,6.469-0.117,8.057-0.117c3.293,0,7.057,0.294,9.821,2.117c1.47,1,3.646,3.528,3.646,6.88c0,3.705-2.117,6.999-7.174,11.057 c4.587,5.646,8.233,10.173,11.35,13.29c2.882,2.882,4.705,3.117,5.528,3.293c0.529,0.118,0.823,0.118,1.235,0.118 s0.647,0.294,0.647,0.529c0,0.411-0.353,0.529-1,0.529h-4.94c-2.881,0-4.292-0.294-5.646-1c-2.234-1.117-4.175-3.47-7.057-7.351 c-2.058-2.705-4.234-6.058-4.881-6.822c-0.294-0.294-0.588-0.353-0.941-0.353l-4.646-0.118c-0.235,0-0.412,0.118-0.412,0.412v0.706 c0,4.646,0.059,8.526,0.294,10.644c0.177,1.471,0.412,2.411,2,2.646c0.765,0.117,1.882,0.177,2.529,0.177 c0.412,0,0.647,0.294,0.647,0.529c0,0.353-0.412,0.529-1.059,0.529c-3,0-7.292-0.177-8.057-0.177c-1,0-4.293,0.177-6.351,0.177 c-0.647,0-1-0.177-1-0.529c0-0.235,0.177-0.529,0.823-0.529c0.765,0,1.353-0.06,1.823-0.177c1.059-0.235,1.353-1.176,1.529-2.646 c0.235-2.117,0.235-6.057,0.235-10.644V60.186z M987.332,64.066c0,0.529,0.118,0.706,0.471,0.883c1.117,0.353,2.646,0.47,3.94,0.47 c2.058,0,2.764-0.176,3.646-0.823c1.588-1.117,3.352-3.293,3.352-7.409c0-7.058-4.822-8.88-7.88-8.88 c-1.293,0-2.529,0.059-3.058,0.176c-0.353,0.118-0.471,0.294-0.471,0.706V64.066z"></path><path d="M1023.317,70.947c-0.294,0-0.353,0.059-0.471,0.353l-2.764,6.704c-0.529,1.235-0.765,2.47-0.765,3.058 c0,0.883,0.47,1.412,2.058,1.412h0.765c0.647,0,0.765,0.235,0.765,0.529c0,0.411-0.294,0.529-0.824,0.529 c-1.705,0-4.116-0.177-5.763-0.177c-0.529,0-3.293,0.177-5.999,0.177c-0.647,0-0.941-0.118-0.941-0.529 c0-0.294,0.176-0.529,0.588-0.529c0.471,0,1.059-0.06,1.529-0.06c2.352-0.353,3.234-1.881,4.293-4.41l13.525-31.462 c0.588-1.411,1-1.999,1.529-1.999c0.764,0,1,0.47,1.529,1.588c1.235,2.764,9.88,23.229,13.173,30.814 c2,4.528,3.47,5.175,4.411,5.352c0.764,0.117,1.353,0.177,1.94,0.177c0.471,0,0.706,0.176,0.706,0.529 c0,0.411-0.294,0.529-2.234,0.529c-1.823,0-5.587,0-9.938-0.118c-0.941-0.059-1.529-0.059-1.529-0.411 c0-0.294,0.117-0.471,0.646-0.529c0.353-0.06,0.706-0.529,0.471-1.117l-3.999-10.057c-0.118-0.294-0.294-0.353-0.529-0.353H1023.317 z M1034.373,68.184c0.235,0,0.294-0.118,0.235-0.295l-4.881-12.702c-0.059-0.176-0.118-0.471-0.235-0.471 c-0.177,0-0.235,0.295-0.294,0.471l-4.999,12.644c-0.118,0.235,0,0.354,0.176,0.354H1034.373z"></path><path d="M1050.834,50.6c-0.647-1.823-1.059-2.999-1.823-3.47c-0.529-0.353-1.529-0.411-2-0.411c-0.529,0-0.823-0.177-0.823-0.529 c0-0.354,0.412-0.471,1.176-0.471c2.646,0,5.528,0.117,5.998,0.117c0.471,0,3-0.117,5.999-0.117c0.765,0,1.117,0.117,1.117,0.471 c0,0.353-0.412,0.529-0.941,0.529c-0.412,0-0.882,0.059-1.293,0.235c-0.471,0.176-0.529,0.47-0.529,0.999 c0,0.647,0.47,2.294,1.117,4.587c0.882,3.294,5.587,18.407,6.351,20.7h0.177l9.879-25.522c0.529-1.411,1.059-1.822,1.529-1.822 c0.588,0,1.059,0.765,1.706,2.352l10.35,24.641H1089c1-2.882,4.939-16.055,6.763-21.876c0.353-1.177,0.529-2.176,0.529-2.882 c0-0.823-0.471-1.411-2.529-1.411c-0.471,0-0.882-0.235-0.882-0.529c0-0.354,0.412-0.471,1.235-0.471 c2.705,0,5.057,0.117,5.528,0.117c0.353,0,2.587-0.117,4.293-0.117c0.588,0,0.941,0.117,0.941,0.412 c0,0.353-0.235,0.588-0.706,0.588c-0.529,0-1.235,0.059-1.823,0.235c-1.235,0.47-1.823,2.352-2.882,5.233 c-2.411,6.292-7.704,22.171-10.232,29.639c-0.588,1.765-0.882,2.353-1.646,2.353c-0.706,0-1.059-0.588-1.823-2.411l-10.526-24.641 h-0.118c-0.882,2.117-7.821,19.818-9.938,24.405c-0.941,2.059-1.235,2.646-2,2.646c-0.646,0-0.941-0.529-1.411-1.823L1050.834,50.6z "></path><path d="M1114.985,76.71c0.118,3.882,0.765,5.058,1.764,5.41c0.882,0.294,1.882,0.354,2.705,0.354c0.588,0,0.882,0.235,0.882,0.529 c0,0.411-0.471,0.529-1.176,0.529c-3.352,0-5.763-0.177-6.704-0.177c-0.47,0-2.94,0.177-5.586,0.177 c-0.706,0-1.176-0.06-1.176-0.529c0-0.294,0.353-0.529,0.823-0.529c0.706,0,1.646-0.06,2.353-0.235 c1.353-0.353,1.529-1.705,1.587-6.058l0.471-29.639c0-1,0.353-1.705,0.882-1.705c0.647,0,1.353,0.765,2.235,1.646 c0.647,0.646,8.41,8.586,15.937,15.937c3.528,3.47,10.409,10.526,11.173,11.232h0.235l-0.529-22.229 c-0.059-3.058-0.529-3.939-1.765-4.41c-0.764-0.294-1.999-0.294-2.705-0.294c-0.646,0-0.823-0.235-0.823-0.529 c0-0.412,0.529-0.471,1.294-0.471c2.705,0,5.469,0.117,6.586,0.117c0.588,0,2.529-0.117,5.057-0.117 c0.706,0,1.176,0.059,1.176,0.471c0,0.294-0.294,0.529-0.882,0.529c-0.529,0-0.941,0-1.588,0.176 c-1.412,0.412-1.823,1.294-1.882,4.117l-0.588,31.521c0,1.117-0.412,1.588-0.823,1.588c-0.882,0-1.588-0.529-2.117-1.059 c-3.235-2.999-9.704-9.174-15.114-14.408c-5.646-5.41-11.115-11.467-12.114-12.35h-0.176L1114.985,76.71z"></path><path d="M1166.787,70.535c0-2.705-0.471-3.764-1.176-5.233c-0.353-0.765-7.41-11.762-9.233-14.408 c-1.294-1.823-2.352-2.999-3.352-3.528c-0.647-0.353-1.529-0.646-2.176-0.646c-0.412,0-0.765-0.177-0.765-0.529 c0-0.354,0.353-0.471,1-0.471c0.882,0,4.763,0.117,6.469,0.117c1.117,0,3.528-0.117,5.881-0.117c0.47,0,0.764,0.117,0.764,0.471 c0,0.411-0.353,0.411-1.176,0.646c-0.412,0.118-0.706,0.353-0.706,0.765s0.235,1,0.647,1.705c0.941,1.529,7.704,13.232,8.586,14.644 c0.647-1.177,6.939-11.879,7.704-13.408c0.529-1.117,0.765-2,0.765-2.646c0-0.471-0.235-0.94-1.117-1.117 c-0.471-0.117-0.941-0.177-0.941-0.588c0-0.354,0.294-0.471,0.882-0.471c1.706,0,3.529,0.117,5.058,0.117 c1.117,0,4.528-0.117,5.528-0.117c0.588,0,0.941,0.117,0.941,0.412c0,0.353-0.412,0.588-1,0.588c-0.529,0-1.47,0.235-2.235,0.588 c-1.117,0.529-1.588,1-2.705,2.353c-1.706,1.999-9.115,13.878-10.056,15.995c-0.765,1.823-0.647,3.353-0.647,4.999v3.999 c0,0.823,0,2.881,0.118,4.998c0.118,1.471,0.588,2.411,2.117,2.646c0.765,0.117,1.882,0.177,2.587,0.177 c0.588,0,0.882,0.294,0.882,0.529c0,0.353-0.412,0.529-1.118,0.529c-3.234,0-6.704-0.177-8.115-0.177 c-1.294,0-4.763,0.177-6.704,0.177c-0.706,0-1.117-0.118-1.117-0.529c0-0.235,0.235-0.529,0.823-0.529 c0.706,0,1.353-0.06,1.823-0.177c1.059-0.235,1.47-1.176,1.588-2.646c0.177-2.117,0.177-4.175,0.177-4.998V70.535z"></path><path d="M1195.833,78.769c-5.116-4.293-6.469-9.938-6.469-14.761c0-3.411,1.117-9.292,6.057-13.702 c3.764-3.293,8.704-5.293,16.407-5.293c3.234,0,5.175,0.235,7.527,0.529c1.941,0.294,3.646,0.647,5.175,0.823 c0.588,0.06,0.764,0.295,0.764,0.589c0,0.411-0.118,0.999-0.235,2.764c-0.118,1.646-0.118,4.41-0.177,5.41 c-0.059,0.706-0.235,1.235-0.706,1.235c-0.412,0-0.529-0.412-0.529-1.059c-0.059-1.588-0.706-3.353-2-4.646 c-1.764-1.705-5.234-2.94-9.997-2.94c-4.528,0-7.41,0.823-9.762,2.823c-3.822,3.293-4.763,8.115-4.763,12.996 c0,11.879,9.174,17.524,16.113,17.524c4.587,0,7.116-0.353,9.174-2.646c0.882-1,1.588-2.411,1.764-3.353 c0.118-0.765,0.235-1,0.647-1c0.353,0,0.588,0.471,0.588,0.883c0,0.588-0.588,4.939-1.117,6.645 c-0.235,0.883-0.471,1.118-1.353,1.471c-2.058,0.823-5.999,1.117-9.351,1.117C1206.537,84.179,1200.538,82.709,1195.833,78.769z"></path><path d="M1263.279,62.009c0.118,0,0.294-0.06,0.294-0.354v-1.059c0-7.586-0.059-9.409-0.118-10.997 c-0.118-1.705-0.588-2.234-2.235-2.705c-0.412-0.117-1.293-0.176-2-0.176c-0.588,0-0.882-0.177-0.882-0.529 c0-0.354,0.353-0.471,1.117-0.471c2.764,0,6.41,0.117,7.763,0.117c1.235,0,4.646-0.117,6.645-0.117c0.765,0,1.118,0.117,1.118,0.471 c0,0.353-0.353,0.529-0.941,0.529c-0.412,0-0.882,0.059-1.529,0.176c-1.353,0.235-1.764,0.941-1.882,2.705 c-0.118,1.588-0.118,3-0.118,10.586v8.821c0,4.587,0,8.526,0.235,10.702c0.176,1.412,0.471,2.353,2.058,2.588 c0.706,0.117,1.823,0.177,2.646,0.177c0.529,0,0.823,0.294,0.823,0.529c0,0.353-0.412,0.529-1.059,0.529 c-3.352,0-6.763-0.177-8.174-0.177c-1.176,0-4.822,0.177-6.821,0.177c-0.706,0-1.118-0.177-1.118-0.529 c0-0.235,0.235-0.529,0.824-0.529c0.823,0,1.411-0.06,1.882-0.177c1.058-0.235,1.353-1.176,1.529-2.646 c0.235-2.117,0.235-5.939,0.235-10.526v-3.822c0-0.177-0.177-0.294-0.294-0.294h-19.524c-0.176,0-0.353,0.059-0.353,0.294v3.822 c0,4.587,0.059,8.409,0.294,10.585c0.176,1.412,0.47,2.353,2,2.588c0.706,0.117,1.882,0.177,2.646,0.177 c0.588,0,0.824,0.294,0.824,0.529c0,0.353-0.412,0.529-1.059,0.529c-3.352,0-6.939-0.177-8.41-0.177 c-1.176,0-4.587,0.177-6.645,0.177c-0.647,0-1-0.177-1-0.529c0-0.235,0.177-0.529,0.823-0.529c0.765,0,1.353-0.06,1.823-0.177 c1.059-0.235,1.353-1.176,1.529-2.646c0.235-2.117,0.235-6.057,0.235-10.644v-8.821c0-7.586,0-8.998-0.059-10.586 c-0.118-1.705-0.588-2.234-2.235-2.705c-0.412-0.117-1.294-0.176-2.058-0.176c-0.529,0-0.882-0.177-0.882-0.529 c0-0.354,0.412-0.471,1.117-0.471c2.764,0,6.175,0.117,7.586,0.117c1.235,0,4.822-0.117,6.88-0.117c0.706,0,1.059,0.117,1.059,0.471 c0,0.353-0.294,0.529-0.941,0.529c-0.412,0-0.882,0.059-1.47,0.176c-1.412,0.235-1.823,0.941-1.94,2.705 c-0.118,1.588-0.118,3.411-0.118,10.997v1.059c0,0.294,0.176,0.354,0.353,0.354H1263.279z"></path><path d="M266.651,118.411c0.203-1.149,0.608-1.757,1.149-1.757c0.541,0,0.946,0.338,1.825,2.095l18.449,38.115l18.382-38.589 c0.541-1.081,0.878-1.621,1.487-1.621s1.014,0.676,1.216,2.095l6.15,41.765c0.608,4.258,1.284,6.218,3.312,6.826 c1.96,0.608,3.312,0.676,4.19,0.676c0.608,0,1.082,0.067,1.082,0.473c0,0.541-0.811,0.744-1.757,0.744 c-1.689,0-11.016-0.203-13.719-0.406c-1.555-0.135-1.96-0.338-1.96-0.743c0-0.338,0.271-0.54,0.743-0.743 c0.406-0.135,0.608-1.014,0.338-2.906l-4.055-29.735h-0.271L288.48,165.38c-1.554,3.177-1.892,3.784-2.5,3.784 s-1.284-1.352-2.365-3.379c-1.622-3.108-6.961-13.448-7.772-15.341c-0.608-1.419-4.663-9.935-7.028-15.003h-0.271l-3.514,26.897 c-0.135,1.217-0.203,2.095-0.203,3.176c0,1.284,0.878,1.893,2.027,2.163c1.216,0.271,2.163,0.338,2.838,0.338 c0.541,0,1.014,0.135,1.014,0.473c0,0.608-0.608,0.744-1.622,0.744c-2.838,0-5.879-0.203-7.096-0.203 c-1.284,0-4.528,0.203-6.691,0.203c-0.676,0-1.216-0.136-1.216-0.744c0-0.338,0.406-0.473,1.082-0.473c0.541,0,1.014,0,2.027-0.203 c1.892-0.405,2.433-3.041,2.771-5.339L266.651,118.411z"></path><path d="M326.467,147.471c0-9.799,6.894-22.504,24.938-22.504c15.003,0,24.33,8.313,24.33,21.49 c0,13.179-9.597,23.519-24.938,23.519C333.496,169.976,326.467,157.676,326.467,147.471z M366.88,148.552 c0-12.705-7.636-20.544-17.233-20.544c-6.623,0-14.395,3.514-14.395,17.706c0,11.826,6.758,21.153,17.977,21.153 C357.419,166.867,366.88,164.907,366.88,148.552z"></path><path d="M394.796,152.539c0,7.367,0,11.017,1.284,12.098c1.014,0.878,3.312,1.216,7.907,1.216c3.176,0,5.474-0.067,6.961-1.621 c0.743-0.744,1.352-2.366,1.486-3.447c0.068-0.54,0.203-0.878,0.676-0.878c0.405,0,0.541,0.607,0.541,1.283 s-0.406,4.934-0.879,6.623c-0.405,1.284-0.676,1.555-3.784,1.555c-4.258,0-7.705-0.067-10.678-0.203 c-2.974-0.067-5.474-0.135-7.907-0.135c-0.676,0-1.96,0.067-3.379,0.067c-1.419,0.067-2.906,0.136-4.123,0.136 c-0.744,0-1.149-0.203-1.149-0.608c0-0.271,0.203-0.608,0.946-0.608c0.878,0,1.554-0.067,2.095-0.203 c1.217-0.27,1.555-1.352,1.757-3.041c0.27-2.433,0.27-6.961,0.27-12.232v-10.137c0-8.718,0-10.34-0.067-12.165 c-0.135-1.959-0.676-2.567-2.568-3.108c-0.473-0.135-1.217-0.203-1.96-0.203c-0.676,0-1.014-0.202-1.014-0.607 c0-0.406,0.405-0.541,1.284-0.541c2.771,0,6.556,0.135,8.178,0.135c1.419,0,6.285-0.135,8.583-0.135 c0.879,0,1.284,0.135,1.284,0.541c0,0.405-0.338,0.607-1.082,0.607c-0.676,0-1.622,0.068-2.297,0.203 c-1.622,0.271-2.095,1.081-2.23,3.108c-0.135,1.825-0.135,3.447-0.135,12.165V152.539z"></path><path d="M420.885,168.488c-0.946-0.405-1.149-0.676-1.149-1.96c0-3.108,0.271-6.69,0.338-7.636c0-0.879,0.271-1.487,0.744-1.487 c0.541,0,0.608,0.541,0.608,0.946c0,0.743,0.203,1.96,0.541,2.974c1.284,4.258,5.745,5.677,9.461,5.677 c5.136,0,8.245-3.244,8.245-7.299c0-2.501-0.608-5.001-5.879-8.109l-3.447-2.027c-7.028-4.123-9.326-7.975-9.326-13.044 c0-7.028,6.758-11.556,15.003-11.556c3.852,0,6.893,0.54,8.448,0.945c0.541,0.136,0.811,0.338,0.811,0.744 c0,0.743-0.203,2.365-0.203,6.893c0,1.217-0.27,1.825-0.743,1.825c-0.405,0-0.608-0.338-0.608-1.014c0-0.541-0.27-2.298-1.554-3.785 c-0.878-1.081-2.771-2.703-6.623-2.703c-4.257,0-8.11,2.23-8.11,6.15c0,2.567,0.946,4.596,6.285,7.569l2.433,1.352 c7.839,4.325,10.272,8.718,10.272,13.921c0,4.258-1.622,7.705-5.947,10.746c-2.838,2.027-6.758,2.365-9.935,2.365 C427.102,169.976,423.453,169.638,420.885,168.488z"></path><path d="M467.046,144.971h0.271c2.027-2.163,10.678-10.678,12.435-12.638c1.689-1.893,2.973-3.244,2.973-4.258 c0-0.608-0.27-1.014-0.811-1.149c-0.541-0.135-0.811-0.27-0.811-0.607c0-0.406,0.338-0.541,0.946-0.541 c1.284,0,4.528,0.135,6.15,0.135c1.825,0,5.136-0.135,6.961-0.135c0.608,0,1.014,0.135,1.014,0.541c0,0.405-0.338,0.607-0.878,0.607 c-0.878,0-2.365,0.271-3.447,0.676c-1.892,0.677-3.784,1.893-6.285,4.258c-1.893,1.758-10.746,10.138-12.57,12.232 c2.095,2.703,13.787,14.868,16.084,17.03c2.635,2.365,4.933,4.866,8.109,6.15c1.757,0.743,2.974,0.743,3.649,0.743 c0.473,0,0.811,0.271,0.811,0.608c0,0.405-0.338,0.608-1.419,0.608h-5.204c-1.757,0-2.838,0-4.122-0.136 c-3.176-0.271-5.136-1.486-7.705-3.717c-2.568-2.23-13.989-15.476-15.273-17.233l-0.608-0.811h-0.271v5.203 c0,5.271,0,9.8,0.135,12.3c0.135,1.622,0.676,2.704,2.163,2.974c0.811,0.136,2.163,0.203,2.906,0.203 c0.473,0,0.811,0.338,0.811,0.608c0,0.405-0.473,0.608-1.149,0.608c-3.311,0-7.569-0.203-9.056-0.203 c-1.352,0-5.136,0.203-7.501,0.203c-0.744,0-1.149-0.203-1.149-0.608c0-0.271,0.203-0.608,0.946-0.608 c0.878,0,1.554-0.067,2.095-0.203c1.217-0.27,1.555-1.352,1.757-3.041c0.271-2.433,0.271-6.961,0.271-12.232v-10.137 c0-8.718,0-10.34-0.068-12.165c-0.135-1.959-0.676-2.567-2.568-3.108c-0.473-0.135-1.487-0.203-2.366-0.203 c-0.608,0-1.014-0.202-1.014-0.607c0-0.406,0.473-0.541,1.352-0.541c3.109,0,6.894,0.135,8.313,0.135 c1.419,0,5.677-0.135,7.637-0.135c0.879,0,1.284,0.135,1.284,0.541c0,0.405-0.338,0.607-0.811,0.607 c-0.608,0-0.946,0.068-1.689,0.203c-1.622,0.271-2.095,1.081-2.23,3.108c-0.068,1.825-0.068,3.447-0.068,12.165V144.971z"></path><path d="M507.463,154.77c-0.338,0-0.406,0.067-0.541,0.405l-3.176,7.705c-0.608,1.419-0.879,2.838-0.879,3.514 c0,1.014,0.541,1.622,2.366,1.622h0.878c0.743,0,0.878,0.271,0.878,0.608c0,0.473-0.338,0.608-0.946,0.608 c-1.959,0-4.73-0.203-6.623-0.203c-0.608,0-3.785,0.203-6.894,0.203c-0.743,0-1.081-0.136-1.081-0.608 c0-0.338,0.203-0.608,0.676-0.608c0.541,0,1.216-0.067,1.757-0.067c2.704-0.405,3.717-2.163,4.934-5.068l15.543-36.156 c0.676-1.622,1.149-2.298,1.757-2.298c0.878,0,1.149,0.541,1.757,1.824c1.419,3.177,11.354,26.695,15.138,35.413 c2.298,5.204,3.987,5.947,5.069,6.149c0.878,0.136,1.554,0.203,2.23,0.203c0.541,0,0.811,0.203,0.811,0.608 c0,0.473-0.338,0.608-2.568,0.608c-2.095,0-6.42,0-11.421-0.136c-1.081-0.067-1.757-0.067-1.757-0.473 c0-0.338,0.135-0.541,0.743-0.608c0.406-0.067,0.811-0.608,0.541-1.284l-4.595-11.557c-0.135-0.338-0.338-0.405-0.608-0.405H507.463 z M520.168,151.594c0.271,0,0.338-0.136,0.271-0.338l-5.609-14.598c-0.067-0.203-0.135-0.541-0.27-0.541 c-0.203,0-0.271,0.338-0.338,0.541l-5.745,14.529c-0.135,0.271,0,0.406,0.203,0.406H520.168z"></path><path d="M562.14,147.741c1.216,0,2.163,0.135,2.163,0.946c0,0.946-1.149,1.148-3.041,1.486c-2.704,0.406-15.071,2.568-17.436,3.244 c-1.352,0.338-2.433,1.081-2.974,1.081s-0.676-0.54-0.541-1.216l1.014-4.663c0.203-0.812,0.473-0.879,1.622-0.879H562.14z"></path><path d="M577.685,137.739c0-10.272,0-12.165-0.135-14.327c-0.135-2.298-0.676-3.379-2.906-3.853 c-0.541-0.135-1.689-0.202-2.636-0.202c-0.743,0-1.148-0.136-1.148-0.608c0-0.474,0.473-0.608,1.487-0.608 c3.582,0,7.839,0.203,9.596,0.203c1.622,0,5.88-0.203,8.515-0.203c0.946,0,1.419,0.135,1.419,0.608c0,0.473-0.405,0.608-1.216,0.608 c-0.744,0-1.149,0.067-1.96,0.202c-1.825,0.338-2.365,1.487-2.5,3.853c-0.135,2.162-0.135,4.055-0.135,14.327v12.503 c0,2.905,0.203,6.149,0.203,9.528c0,3.853-0.27,8.178-1.622,11.962c-1.419,4.123-5.001,8.786-11.489,12.773 c-0.878,0.54-1.959,1.081-3.379,1.757c-0.473,0.271-1.014,0.405-1.352,0.405c-0.271,0-0.541-0.203-0.541-0.541 s0.338-0.607,1.487-1.216c0.878-0.474,1.892-1.217,3.244-2.568c5.136-5.204,5.069-11.962,5.069-25.208V137.739z"></path><path d="M603.098,142.402c0-8.718,0-10.34-0.068-12.165c-0.135-1.959-0.676-2.567-2.568-3.108c-0.473-0.135-1.487-0.203-2.366-0.203 c-0.608,0-1.014-0.202-1.014-0.607c0-0.406,0.473-0.541,1.352-0.541c3.109,0,6.894,0.135,8.583,0.135c1.892,0,15.071,0.068,16.22,0 c1.081-0.067,2.027-0.27,2.5-0.338c0.338-0.067,0.676-0.27,0.946-0.27c0.338,0,0.406,0.27,0.406,0.54 c0,0.405-0.338,1.081-0.473,3.717c-0.068,0.608-0.203,3.109-0.338,3.785c-0.068,0.271-0.203,0.946-0.676,0.946 c-0.406,0-0.473-0.271-0.473-0.744c0-0.405-0.067-1.419-0.405-2.095c-0.473-1.014-0.946-1.824-3.92-2.095 c-1.014-0.136-8.11-0.271-9.326-0.271c-0.271,0-0.406,0.203-0.406,0.541v14.191c0,0.338,0.068,0.608,0.406,0.608 c1.352,0,9.056,0,10.407-0.135c1.419-0.136,2.298-0.271,2.839-0.879c0.473-0.405,0.676-0.743,0.946-0.743 c0.271,0,0.473,0.271,0.473,0.608s-0.135,1.283-0.473,4.189c-0.135,1.149-0.27,3.447-0.27,3.853c0,0.473-0.068,1.284-0.608,1.284 c-0.406,0-0.541-0.203-0.541-0.474c-0.068-0.608-0.068-1.352-0.203-2.095c-0.338-1.149-1.081-2.027-3.311-2.23 c-1.082-0.135-7.84-0.271-9.327-0.271c-0.27,0-0.338,0.271-0.338,0.608v4.596c0,1.96-0.067,6.826,0,8.516 c0.135,3.919,1.96,4.798,8.042,4.798c1.554,0,4.055-0.067,5.609-0.743c1.486-0.676,2.162-1.893,2.568-4.258 c0.135-0.608,0.271-0.879,0.676-0.879c0.473,0,0.541,0.744,0.541,1.352c0,1.284-0.473,5.204-0.811,6.354 c-0.405,1.486-0.946,1.486-3.176,1.486c-4.46,0-8.042-0.067-10.948-0.203c-2.906-0.067-5.136-0.135-6.893-0.135 c-0.676,0-1.96,0.067-3.379,0.067c-1.419,0.067-2.906,0.136-4.123,0.136c-0.744,0-1.149-0.203-1.149-0.608 c0-0.271,0.203-0.608,0.946-0.608c0.878,0,1.554-0.067,2.095-0.203c1.217-0.27,1.555-1.352,1.757-3.041 c0.271-2.433,0.271-6.961,0.271-12.232V142.402z"></path><path d="M640.676,142.402c0-8.718,0-10.34-0.068-12.165c-0.135-1.959-0.676-2.567-2.568-3.108c-0.473-0.135-1.487-0.203-2.366-0.203 c-0.608,0-1.014-0.202-1.014-0.607c0-0.406,0.473-0.541,1.352-0.541c3.109,0,6.894,0.135,8.11,0.135 c2.027,0,7.434-0.135,9.259-0.135c3.785,0,8.11,0.338,11.286,2.433c1.689,1.149,4.19,4.056,4.19,7.907 c0,4.258-2.433,8.042-8.245,12.705c5.271,6.488,9.461,11.691,13.043,15.273c3.312,3.312,5.406,3.582,6.353,3.785 c0.608,0.135,0.946,0.135,1.419,0.135c0.473,0,0.744,0.338,0.744,0.608c0,0.473-0.406,0.608-1.149,0.608h-5.677 c-3.312,0-4.934-0.338-6.488-1.149c-2.568-1.284-4.798-3.987-8.11-8.447c-2.365-3.109-4.866-6.961-5.609-7.84 c-0.338-0.338-0.676-0.405-1.081-0.405l-5.339-0.135c-0.271,0-0.473,0.135-0.473,0.473v0.811c0,5.339,0.067,9.8,0.338,12.232 c0.203,1.689,0.473,2.771,2.298,3.041c0.878,0.136,2.163,0.203,2.906,0.203c0.473,0,0.744,0.338,0.744,0.608 c0,0.405-0.473,0.608-1.217,0.608c-3.446,0-8.38-0.203-9.258-0.203c-1.149,0-4.934,0.203-7.299,0.203 c-0.744,0-1.149-0.203-1.149-0.608c0-0.271,0.203-0.608,0.946-0.608c0.878,0,1.554-0.067,2.095-0.203 c1.217-0.27,1.555-1.352,1.757-3.041c0.271-2.433,0.271-6.961,0.271-12.232V142.402z M648.245,146.862 c0,0.608,0.135,0.812,0.541,1.014c1.284,0.406,3.042,0.541,4.528,0.541c2.366,0,3.177-0.203,4.19-0.946 c1.825-1.284,3.852-3.784,3.852-8.515c0-8.11-5.542-10.205-9.056-10.205c-1.487,0-2.906,0.067-3.514,0.203 c-0.405,0.135-0.541,0.338-0.541,0.811V146.862z"></path><path d="M687.039,142.402c0-8.718,0-10.34-0.067-12.165c-0.135-1.959-0.743-2.636-2.027-3.041c-0.676-0.202-1.419-0.271-2.163-0.271 c-0.608,0-0.946-0.135-0.946-0.676c0-0.338,0.473-0.473,1.419-0.473c2.23,0,6.285,0.135,7.975,0.135 c1.487,0,5.339-0.135,7.637-0.135c0.743,0,1.216,0.135,1.216,0.473c0,0.541-0.338,0.676-0.946,0.676 c-0.608,0-1.081,0.068-1.757,0.203c-1.622,0.271-2.095,1.081-2.23,3.108c-0.135,1.825-0.135,3.447-0.135,12.165v10.137 c0,5.542,0,10.138,0.271,12.57c0.203,1.555,0.608,2.434,2.365,2.703c0.811,0.136,2.163,0.203,3.042,0.203 c0.676,0,0.946,0.338,0.946,0.608c0,0.405-0.473,0.608-1.149,0.608c-3.919,0-7.975-0.203-9.596-0.203 c-1.352,0-5.407,0.203-7.772,0.203c-0.744,0-1.149-0.203-1.149-0.608c0-0.271,0.203-0.608,0.946-0.608 c0.878,0,1.554-0.067,2.095-0.203c1.217-0.27,1.555-1.081,1.757-2.771c0.27-2.365,0.27-6.961,0.27-12.503V142.402z"></path><path d="M718.264,161.393c0.135,4.46,0.878,5.813,2.027,6.218c1.014,0.338,2.163,0.405,3.109,0.405c0.676,0,1.014,0.271,1.014,0.608 c0,0.473-0.541,0.608-1.352,0.608c-3.852,0-6.623-0.203-7.705-0.203c-0.541,0-3.379,0.203-6.42,0.203 c-0.811,0-1.352-0.068-1.352-0.608c0-0.338,0.405-0.608,0.946-0.608c0.811,0,1.893-0.067,2.704-0.271 c1.554-0.405,1.757-1.96,1.825-6.961l0.541-34.061c0-1.149,0.405-1.96,1.014-1.96c0.743,0,1.554,0.879,2.568,1.893 c0.744,0.743,9.664,9.866,18.314,18.314c4.055,3.987,11.962,12.097,12.841,12.907h0.27L748,132.333 c-0.068-3.515-0.608-4.528-2.028-5.069c-0.878-0.338-2.297-0.338-3.108-0.338c-0.744,0-0.946-0.27-0.946-0.607 c0-0.474,0.608-0.541,1.487-0.541c3.109,0,6.285,0.135,7.569,0.135c0.676,0,2.906-0.135,5.812-0.135 c0.811,0,1.352,0.067,1.352,0.541c0,0.338-0.338,0.607-1.014,0.607c-0.608,0-1.081,0-1.825,0.203 c-1.622,0.473-2.095,1.487-2.163,4.73l-0.676,36.224c0,1.284-0.473,1.825-0.946,1.825c-1.014,0-1.825-0.608-2.433-1.217 c-3.717-3.446-11.151-10.543-17.368-16.558c-6.488-6.217-12.773-13.178-13.922-14.191h-0.203L718.264,161.393z"></path><path d="M796.866,139.226c-2.838-3.784-3.379-6.555-3.447-9.596c-0.067-5.339,4.663-12.436,16.422-12.436 c3.312,0,6.353,0.676,8.177,1.419c1.149,0.406,1.149,0.946,1.149,1.758c0,2.229-0.541,7.637-0.744,8.65 c-0.135,1.014-0.405,1.148-0.811,1.148c-0.405,0-0.473-0.271-0.473-1.284c0-1.757-0.473-3.919-1.96-5.677 c-1.352-1.622-3.717-3.041-7.501-3.041c-2.838,0-7.231,1.96-7.231,7.704c0,6.353,5.812,11.76,11.219,17.774 c2.298,2.636,10.61,10.137,11.894,11.286c1.352-1.893,3.244-6.285,3.244-10.408c0-1.014-0.271-2.229-1.284-3.108 c-0.878-0.811-2.298-1.014-3.312-1.014c-0.405,0-0.811-0.135-0.811-0.541c0-0.54,0.541-0.676,1.082-0.676 c1.622,0,4.325,0.068,8.109,0.474c1.284,0.135,2.298,0.54,2.298,1.352c0,5.203-2.771,11.488-6.623,16.017 c4.528,3.717,7.569,5.542,9.394,6.623c2.163,1.284,5.879,2.365,7.231,2.365c0.608,0,0.946,0.067,0.946,0.608 c0,0.405-0.541,0.608-2.027,0.608h-5.204c-7.705,0-10.137-0.744-15.949-5.204c-2.23,2.027-6.758,6.149-16.017,6.149 c-14.462,0-18.787-9.056-18.787-14.935C785.851,147.336,792.811,141.186,796.866,139.226z M818.019,161.865 c-3.92-3.379-10.408-9.731-12.165-11.623c-1.757-1.893-6.083-6.759-7.231-8.448c-2.297,1.689-4.663,4.866-4.663,10.272 c0,8.447,5.947,13.854,12.976,13.854C812.14,165.921,816.6,163.218,818.019,161.865z"></path><path d="M863.37,124.764c-0.811-2.501-1.554-4.122-2.5-4.798c-0.743-0.474-2.095-0.608-2.703-0.608 c-0.676,0-1.081-0.068-1.081-0.608c0-0.474,0.541-0.608,1.487-0.608c3.514,0,7.231,0.203,7.839,0.203 c0.608,0,3.582-0.203,7.501-0.203c0.946,0,1.419,0.203,1.419,0.608c0,0.54-0.541,0.608-1.216,0.608c-0.541,0-1.216,0-1.689,0.271 c-0.608,0.27-0.744,0.743-0.744,1.486c0,0.879,0.676,3.177,1.487,6.218c1.149,4.46,7.434,24.938,8.65,28.722h0.203l13.11-35.21 c0.676-1.893,1.149-2.433,1.69-2.433c0.743,0,1.081,1.014,1.959,3.176l14.057,33.994h0.203c1.216-4.528,6.623-22.37,8.988-30.276 c0.473-1.555,0.676-2.974,0.676-3.92c0-1.081-0.608-2.027-3.244-2.027c-0.676,0-1.149-0.203-1.149-0.608 c0-0.474,0.541-0.608,1.554-0.608c3.582,0,6.42,0.203,7.028,0.203c0.473,0,3.379-0.203,5.609-0.203c0.744,0,1.216,0.135,1.216,0.541 c0,0.473-0.338,0.676-0.946,0.676c-0.676,0-1.622,0.067-2.366,0.338c-1.622,0.608-2.365,3.312-3.784,7.163 c-3.109,8.516-10.205,30.006-13.517,40.144c-0.743,2.365-1.081,3.176-1.959,3.176c-0.676,0-1.082-0.811-2.095-3.311l-14.057-33.858 h-0.135c-1.284,3.446-10.272,27.37-13.178,33.588c-1.284,2.771-1.622,3.581-2.433,3.581c-0.676,0-0.946-0.743-1.554-2.5 L863.37,124.764z"></path><path d="M938.121,168.488c-0.946-0.405-1.149-0.676-1.149-1.96c0-3.108,0.271-6.69,0.338-7.636c0-0.879,0.271-1.487,0.744-1.487 c0.541,0,0.608,0.541,0.608,0.946c0,0.743,0.203,1.96,0.541,2.974c1.284,4.258,5.745,5.677,9.461,5.677 c5.136,0,8.245-3.244,8.245-7.299c0-2.501-0.608-5.001-5.879-8.109l-3.447-2.027c-7.028-4.123-9.326-7.975-9.326-13.044 c0-7.028,6.758-11.556,15.003-11.556c3.852,0,6.893,0.54,8.448,0.945c0.541,0.136,0.811,0.338,0.811,0.744 c0,0.743-0.203,2.365-0.203,6.893c0,1.217-0.27,1.825-0.743,1.825c-0.405,0-0.608-0.338-0.608-1.014c0-0.541-0.27-2.298-1.554-3.785 c-0.878-1.081-2.771-2.703-6.623-2.703c-4.257,0-8.11,2.23-8.11,6.15c0,2.567,0.946,4.596,6.285,7.569l2.433,1.352 c7.839,4.325,10.272,8.718,10.272,13.921c0,4.258-1.622,7.705-5.947,10.746c-2.838,2.027-6.758,2.365-9.935,2.365 C944.338,169.976,940.689,169.638,938.121,168.488z"></path><path d="M976.511,142.402c0-8.718,0-10.34-0.068-12.165c-0.135-1.959-0.676-2.567-2.568-3.108c-0.473-0.135-1.487-0.203-2.366-0.203 c-0.608,0-1.014-0.202-1.014-0.607c0-0.406,0.473-0.541,1.352-0.541c3.109,0,6.894,0.135,8.583,0.135 c2.433,0,7.164-0.135,9.867-0.135c7.434,0,10.137,2.433,11.083,3.244c1.284,1.216,2.974,3.784,2.974,6.893 c0,8.11-6.488,13.922-14.936,13.922c-0.271,0-1.487,0-1.757-0.067c-0.338,0-0.744-0.202-0.744-0.608c0-0.473,0.676-0.743,1.96-0.743 c3.312,0,7.975-3.446,7.975-9.326c0-1.893-0.203-5.677-3.514-8.516c-2.163-1.892-4.596-2.162-5.947-2.162 c-0.878,0-2.027,0.067-2.568,0.271c-0.338,0.135-0.473,0.473-0.473,1.081v22.774c0,5.271,0,9.8,0.27,12.3 c0.203,1.622,0.541,2.704,2.298,2.974c0.878,0.136,2.163,0.203,3.041,0.203c0.676,0,0.946,0.338,0.946,0.608 c0,0.405-0.473,0.608-1.081,0.608c-3.987,0-8.178-0.203-9.732-0.203c-1.352,0-5.136,0.203-7.501,0.203 c-0.744,0-1.149-0.203-1.149-0.608c0-0.271,0.203-0.608,0.946-0.608c0.878,0,1.554-0.067,2.095-0.203 c1.217-0.27,1.555-1.352,1.757-3.041c0.271-2.433,0.271-6.961,0.271-12.232V142.402z"></path><path d="M1010.304,147.471c0-9.799,6.894-22.504,24.938-22.504c15.003,0,24.33,8.313,24.33,21.49 c0,13.179-9.597,23.519-24.938,23.519C1017.333,169.976,1010.304,157.676,1010.304,147.471z M1050.717,148.552 c0-12.705-7.636-20.544-17.233-20.544c-6.623,0-14.395,3.514-14.395,17.706c0,11.826,6.758,21.153,17.977,21.153 C1041.256,166.867,1050.717,164.907,1050.717,148.552z M1046.189,114.965c0.406,0.811,0,1.014-0.338,1.014s-0.946-0.136-2.298,0 c-3.717,0.473-9.056,2.635-11.556,3.987c-0.541,0.27-1.014,0.54-1.149,0.54s-0.405-0.135-0.405-0.405s0.27-0.541,0.608-0.879 c2.703-2.567,9.799-7.839,10.881-8.515c0.676-0.474,1.149-0.608,1.352-0.608c0.473,0,0.608,0.202,0.946,0.811 C1044.771,111.855,1045.378,113.14,1046.189,114.965z"></path><path d="M1078.633,152.539c0,7.367,0,11.017,1.284,12.098c1.014,0.878,3.312,1.216,7.907,1.216c3.176,0,5.474-0.067,6.961-1.621 c0.743-0.744,1.352-2.366,1.486-3.447c0.068-0.54,0.203-0.878,0.676-0.878c0.405,0,0.541,0.607,0.541,1.283 s-0.406,4.934-0.879,6.623c-0.405,1.284-0.676,1.555-3.784,1.555c-4.258,0-7.705-0.067-10.678-0.203 c-2.974-0.067-5.474-0.135-7.907-0.135c-0.676,0-1.96,0.067-3.379,0.067c-1.419,0.067-2.906,0.136-4.123,0.136 c-0.744,0-1.149-0.203-1.149-0.608c0-0.271,0.203-0.608,0.946-0.608c0.878,0,1.554-0.067,2.095-0.203 c1.217-0.27,1.555-1.352,1.757-3.041c0.27-2.433,0.27-6.961,0.27-12.232v-10.137c0-8.718,0-10.34-0.067-12.165 c-0.135-1.959-0.676-2.567-2.568-3.108c-0.473-0.135-1.217-0.203-1.96-0.203c-0.676,0-1.014-0.202-1.014-0.607 c0-0.406,0.405-0.541,1.284-0.541c2.771,0,6.556,0.135,8.178,0.135c1.419,0,6.285-0.135,8.583-0.135 c0.879,0,1.284,0.135,1.284,0.541c0,0.405-0.338,0.607-1.082,0.607c-0.676,0-1.622,0.068-2.297,0.203 c-1.622,0.271-2.095,1.081-2.23,3.108c-0.135,1.825-0.135,3.447-0.135,12.165V152.539z"></path><path d="M1111.682,161.393c0.135,4.46,0.878,5.813,2.027,6.218c1.014,0.338,2.163,0.405,3.109,0.405 c0.676,0,1.014,0.271,1.014,0.608c0,0.473-0.541,0.608-1.352,0.608c-3.852,0-6.623-0.203-7.705-0.203 c-0.541,0-3.379,0.203-6.42,0.203c-0.811,0-1.352-0.068-1.352-0.608c0-0.338,0.405-0.608,0.946-0.608 c0.811,0,1.893-0.067,2.704-0.271c1.554-0.405,1.757-1.96,1.825-6.961l0.541-34.061c0-1.149,0.405-1.96,1.014-1.96 c0.743,0,1.554,0.879,2.568,1.893c0.744,0.743,9.664,9.866,18.314,18.314c4.055,3.987,11.962,12.097,12.841,12.907h0.27 l-0.608-25.545c-0.068-3.515-0.608-4.528-2.028-5.069c-0.878-0.338-2.297-0.338-3.108-0.338c-0.744,0-0.946-0.27-0.946-0.607 c0-0.474,0.608-0.541,1.487-0.541c3.109,0,6.285,0.135,7.569,0.135c0.676,0,2.906-0.135,5.812-0.135 c0.811,0,1.352,0.067,1.352,0.541c0,0.338-0.338,0.607-1.014,0.607c-0.608,0-1.081,0-1.825,0.203 c-1.622,0.473-2.095,1.487-2.163,4.73l-0.676,36.224c0,1.284-0.473,1.825-0.946,1.825c-1.014,0-1.825-0.608-2.433-1.217 c-3.717-3.446-11.151-10.543-17.368-16.558c-6.488-6.217-12.773-13.178-13.922-14.191h-0.203L1111.682,161.393z"></path><path d="M1164.805,142.402c0-8.718,0-10.34-0.067-12.165c-0.135-1.959-0.743-2.636-2.027-3.041 c-0.676-0.202-1.419-0.271-2.163-0.271c-0.608,0-0.946-0.135-0.946-0.676c0-0.338,0.473-0.473,1.419-0.473 c2.23,0,6.285,0.135,7.975,0.135c1.487,0,5.339-0.135,7.637-0.135c0.743,0,1.216,0.135,1.216,0.473c0,0.541-0.338,0.676-0.946,0.676 c-0.608,0-1.081,0.068-1.757,0.203c-1.622,0.271-2.095,1.081-2.23,3.108c-0.135,1.825-0.135,3.447-0.135,12.165v10.137 c0,5.542,0,10.138,0.271,12.57c0.203,1.555,0.608,2.434,2.365,2.703c0.811,0.136,2.163,0.203,3.042,0.203 c0.676,0,0.946,0.338,0.946,0.608c0,0.405-0.473,0.608-1.149,0.608c-3.919,0-7.975-0.203-9.596-0.203 c-1.352,0-5.407,0.203-7.772,0.203c-0.744,0-1.149-0.203-1.149-0.608c0-0.271,0.203-0.608,0.946-0.608 c0.878,0,1.554-0.067,2.095-0.203c1.217-0.27,1.555-1.081,1.757-2.771c0.27-2.365,0.27-6.961,0.27-12.503V142.402z"></path><path d="M1192.583,163.758c-5.879-4.934-7.434-11.421-7.434-16.963c0-3.92,1.284-10.678,6.961-15.746 c4.325-3.785,10.002-6.082,18.855-6.082c3.717,0,5.947,0.27,8.65,0.607c2.23,0.338,4.19,0.744,5.947,0.946 c0.676,0.067,0.879,0.338,0.879,0.676c0,0.474-0.135,1.149-0.271,3.177c-0.135,1.893-0.135,5.068-0.203,6.217 c-0.068,0.812-0.271,1.42-0.811,1.42c-0.473,0-0.608-0.474-0.608-1.217c-0.067-1.824-0.811-3.852-2.297-5.339 c-2.028-1.96-6.015-3.379-11.489-3.379c-5.204,0-8.515,0.946-11.218,3.244c-4.393,3.784-5.474,9.326-5.474,14.936 c0,13.651,10.543,20.139,18.517,20.139c5.271,0,8.178-0.405,10.543-3.041c1.014-1.149,1.825-2.771,2.027-3.853 c0.135-0.878,0.271-1.148,0.743-1.148c0.406,0,0.676,0.541,0.676,1.014c0,0.676-0.676,5.677-1.284,7.637 c-0.271,1.014-0.541,1.284-1.555,1.689c-2.365,0.946-6.893,1.284-10.745,1.284C1204.883,169.976,1197.99,168.286,1192.583,163.758z"></path><path d="M1247.056,154.297c0-3.109-0.541-4.325-1.352-6.015c-0.405-0.879-8.515-13.517-10.61-16.558 c-1.487-2.095-2.703-3.446-3.852-4.055c-0.743-0.406-1.757-0.744-2.5-0.744c-0.473,0-0.878-0.202-0.878-0.607 c0-0.406,0.405-0.541,1.149-0.541c1.014,0,5.474,0.135,7.434,0.135c1.284,0,4.055-0.135,6.758-0.135 c0.541,0,0.878,0.135,0.878,0.541c0,0.473-0.405,0.473-1.352,0.743c-0.473,0.135-0.811,0.405-0.811,0.878 c0,0.474,0.271,1.149,0.744,1.96c1.081,1.758,8.853,15.206,9.867,16.828c0.743-1.352,7.975-13.651,8.853-15.408 c0.608-1.284,0.878-2.298,0.878-3.041c0-0.541-0.27-1.082-1.284-1.284c-0.541-0.136-1.082-0.203-1.082-0.676 c0-0.406,0.338-0.541,1.014-0.541c1.96,0,4.055,0.135,5.812,0.135c1.284,0,5.204-0.135,6.353-0.135c0.676,0,1.081,0.135,1.081,0.473 c0,0.406-0.473,0.676-1.149,0.676c-0.608,0-1.689,0.271-2.568,0.676c-1.284,0.608-1.825,1.149-3.109,2.704 c-1.96,2.298-10.475,15.949-11.556,18.382c-0.879,2.095-0.744,3.852-0.744,5.744v4.596c0,0.946,0,3.312,0.135,5.744 c0.135,1.689,0.676,2.771,2.433,3.041c0.879,0.136,2.163,0.203,2.974,0.203c0.676,0,1.014,0.338,1.014,0.608 c0,0.405-0.473,0.608-1.284,0.608c-3.717,0-7.705-0.203-9.326-0.203c-1.487,0-5.474,0.203-7.705,0.203 c-0.811,0-1.284-0.136-1.284-0.608c0-0.271,0.27-0.608,0.946-0.608c0.811,0,1.555-0.067,2.095-0.203 c1.216-0.27,1.689-1.352,1.825-3.041c0.203-2.433,0.203-4.798,0.203-5.744V154.297z"></path></svg>