<svg width="28" height="28" viewBox="0 0 28 28" fill="none" xmlns="http://www.w3.org/2000/svg">
<path fill-rule="evenodd" clip-rule="evenodd" d="M22.1667 21H5.83334C5.19051 21 4.66668 20.4774 4.66668 19.8334V8.45835L13.3 14.9334C13.5077 15.0897 13.7538 15.1667 14 15.1667C14.2462 15.1667 14.4923 15.0897 14.7 14.9334L23.3333 8.45835V19.8334C23.3333 20.4774 22.8095 21 22.1667 21ZM21.3885 7.00002L14 12.5417L6.61151 7.00002H21.3885ZM22.1667 4.66669H5.83334C3.90368 4.66669 2.33334 6.23702 2.33334 8.16669V19.8334C2.33334 21.763 3.90368 23.3334 5.83334 23.3334H22.1667C24.0963 23.3334 25.6667 21.763 25.6667 19.8334V8.16669C25.6667 6.23702 24.0963 4.66669 22.1667 4.66669Z" fill="#00662B"/>
</svg>
