<svg width="32" height="32" viewBox="0 0 32 32" fill="none" xmlns="http://www.w3.org/2000/svg">
<path d="M22.6455 2.66669H9.33335C5.67198 2.66669 2.66669 5.67198 2.66669 9.35452V22.6667C2.66669 26.3281 5.67198 29.3334 9.33335 29.3334H22.6455C26.3281 29.3334 29.3334 26.3281 29.3334 22.6455V9.35452C29.3334 5.67198 26.3281 2.66669 22.6455 2.66669ZM19.5767 16H17.0582V24.254H13.8836V16H12.1905V12.6138H13.672V11.1746C13.672 9.82013 14.3492 7.68256 17.2064 7.68256H19.8095V10.4974H17.9683C17.672 10.4974 17.2699 10.6879 17.2699 11.3439V12.6138H19.873L19.5767 16Z" fill="#00662B"/>
</svg>
