<svg width="32" height="32" viewBox="0 0 32 32" fill="none" xmlns="http://www.w3.org/2000/svg">
<path d="M18.3579 14.2857C17.8293 13.545 16.9622 13.0582 15.9894 13.0582C15.0167 13.0582 14.1496 13.545 13.621 14.2857C13.2826 14.7725 13.0711 15.3651 13.0711 16C13.0711 17.6085 14.3823 18.9207 15.9894 18.9207C17.5966 18.9207 18.9078 17.6085 18.9078 16C18.9078 15.3651 18.6963 14.7725 18.3579 14.2857Z" fill="#00662B"/>
<path d="M20.1977 14.3069C20.4092 14.7302 20.5361 15.4074 20.5361 16C20.5361 18.4974 18.506 20.5503 15.9894 20.5503C13.4729 20.5503 11.4428 18.5185 11.4428 16C11.4428 15.3863 11.5697 14.7302 11.7811 14.3069H9.22233V21.1005C9.22233 21.9894 10.0048 22.7725 10.893 22.7725H21.0859C21.9741 22.7725 22.7566 21.9894 22.7566 21.1005V14.3069H20.1977Z" fill="#00662B"/>
<path d="M21.9953 9.60849H19.5422V12.4233H22.3336V9.58732L21.9953 9.60849Z" fill="#00662B"/>
<path d="M22.6297 2.66669H9.34921C5.6696 2.66669 2.66669 5.67198 2.66669 9.35452V22.6667C2.66669 26.3281 5.6696 29.3334 9.34921 29.3334H22.6508C26.3304 29.3334 29.3334 26.3281 29.3334 22.6455V9.35452C29.3122 5.67198 26.3093 2.66669 22.6297 2.66669ZM24.2369 21.1005C24.2369 22.8783 22.8623 24.254 21.0859 24.254H10.893C9.1166 24.254 7.74202 22.8783 7.74202 21.1005V10.8995C7.74202 9.12171 9.1166 7.74605 10.893 7.74605H21.0859C22.8623 7.74605 24.2369 9.12171 24.2369 10.8995V21.1005Z" fill="#00662B"/>
</svg>
