<svg width="32" height="32" viewBox="0 0 32 32" fill="none" xmlns="http://www.w3.org/2000/svg">
<path d="M22.6297 2.66669H9.34921C5.6696 2.66669 2.66669 5.67198 2.66669 9.35452V22.6667C2.66669 26.3281 5.6696 29.3334 9.34921 29.3334H22.6508C26.3304 29.3334 29.3334 26.3281 29.3334 22.6455V9.35452C29.3122 5.67198 26.3093 2.66669 22.6297 2.66669ZM11.5485 24.254H7.74202V13.2487H11.5485V24.254ZM9.62413 11.5556C8.54562 11.5556 7.67858 10.6879 7.67858 9.60849C7.67858 8.52912 8.54562 7.6614 9.62413 7.6614C10.7026 7.6614 11.5697 8.52912 11.5697 9.60849C11.5485 10.6879 10.6815 11.5556 9.62413 11.5556ZM24.258 24.254H24.2369H21.0648V18.9207C21.0648 17.6296 20.8956 15.9789 19.1404 15.9789C17.3429 15.9789 17.0468 17.3757 17.0468 18.836V24.254H13.8747V13.2487H16.8353V14.7302H16.9199C17.3852 13.8836 18.4637 13.2275 20.1555 13.2275C23.6447 13.2275 24.258 15.2381 24.258 18.2222V24.254Z" fill="#00662B"/>
</svg>
