<svg width="29" height="28" viewBox="0 0 29 28" fill="none" xmlns="http://www.w3.org/2000/svg">
<path fill-rule="evenodd" clip-rule="evenodd" d="M14.5 12.8327C13.5352 12.8327 12.75 12.0476 12.75 11.0827C12.75 10.1179 13.5352 9.33273 14.5 9.33273C15.4649 9.33273 16.25 10.1179 16.25 11.0827C16.25 12.0476 15.4649 12.8327 14.5 12.8327ZM14.5 6.9994C12.2484 6.9994 10.4167 8.83106 10.4167 11.0827C10.4167 13.3344 12.2484 15.1661 14.5 15.1661C16.7517 15.1661 18.5834 13.3344 18.5834 11.0827C18.5834 8.83106 16.7517 6.9994 14.5 6.9994ZM14.5 22.9203C12.5459 21.0723 7.50002 15.8841 7.50002 11.5756C7.50002 7.76648 10.6395 4.66665 14.5 4.66665C18.3605 4.66665 21.5 7.76648 21.5 11.5756C21.5 15.8841 16.4542 21.0723 14.5 22.9203ZM14.5 2.33331C9.35385 2.33331 5.16669 6.47848 5.16669 11.5756C5.16669 17.9631 13.3905 25.0845 13.7405 25.3843C13.9599 25.5721 14.2294 25.6666 14.5 25.6666C14.7707 25.6666 15.0402 25.5721 15.2595 25.3843C15.6095 25.0845 23.8334 17.9631 23.8334 11.5756C23.8334 6.47848 19.6462 2.33331 14.5 2.33331Z" fill="#00662B"/>
</svg>
