<svg width="28" height="28" viewBox="0 0 28 28" fill="none" xmlns="http://www.w3.org/2000/svg">
<path fill-rule="evenodd" clip-rule="evenodd" d="M11.0833 6.99998H16.9167C17.5618 6.99998 18.0833 7.52148 18.0833 8.16665C18.0833 8.81181 17.5618 9.33331 16.9167 9.33331H11.0833C10.4382 9.33331 9.91666 8.81181 9.91666 8.16665C9.91666 7.52148 10.4382 6.99998 11.0833 6.99998ZM12.25 19.25C12.25 18.284 13.034 17.5 14 17.5C14.966 17.5 15.75 18.284 15.75 19.25C15.75 20.216 14.966 21 14 21C13.034 21 12.25 20.216 12.25 19.25ZM21 22.1666C21 22.8106 20.4773 23.3333 19.8333 23.3333H8.16666C7.52266 23.3333 7 22.8106 7 22.1666V5.83331C7 5.18931 7.52266 4.66665 8.16666 4.66665H19.8333C20.4773 4.66665 21 5.18931 21 5.83331V22.1666ZM19.8333 2.33331H8.16666C6.237 2.33331 4.66666 3.90365 4.66666 5.83331V22.1666C4.66666 24.0963 6.237 25.6666 8.16666 25.6666H19.8333C21.763 25.6666 23.3333 24.0963 23.3333 22.1666V5.83331C23.3333 3.90365 21.763 2.33331 19.8333 2.33331Z" fill="#00662B"/>
</svg>
