<svg width="32" height="32" viewBox="0 0 32 32" fill="none" xmlns="http://www.w3.org/2000/svg">
<path d="M14.2857 13.3757V18.2434L18.7725 15.8307L14.2857 13.3757Z" fill="#00662B"/>
<path d="M22.6455 2.66669H9.33335C5.67198 2.66669 2.66669 5.67198 2.66669 9.35452V22.6667C2.66669 26.3281 5.67198 29.3334 9.33335 29.3334H22.6455C26.3281 29.3334 29.3334 26.3281 29.3334 22.6455V9.35452C29.3334 5.67198 26.3281 2.66669 22.6455 2.66669ZM24.254 16.6561C24.254 18.0529 24.127 19.4709 24.127 19.4709C24.127 19.4709 23.9789 20.6561 23.4921 21.1852C22.8572 21.8836 22.1588 21.8836 21.8413 21.9259C19.5132 22.0953 16.0212 22.1164 16.0212 22.1164C16.0212 22.1164 11.6826 22.0529 10.3492 21.9259C9.98944 21.8625 9.14288 21.8836 8.50796 21.1852C8.00002 20.6561 7.87304 19.4709 7.87304 19.4709C7.87304 19.4709 7.74605 18.0529 7.74605 16.6561V15.3439C7.74605 13.9471 7.87304 12.5291 7.87304 12.5291C7.87304 12.5291 8.02118 11.3439 8.50796 10.8148C9.14288 10.1164 9.84129 10.0953 10.1588 10.0529C12.508 9.88362 16 9.86245 16 9.86245C16 9.86245 19.4921 9.88362 21.8201 10.0529C22.1376 10.0953 22.8572 10.1164 23.4921 10.7937C24 11.3228 24.127 12.5291 24.127 12.5291C24.127 12.5291 24.254 13.9471 24.254 15.3439V16.6561Z" fill="#00662B"/>
</svg>
