<svg width="32" height="32" viewBox="0 0 32 32" fill="none" xmlns="http://www.w3.org/2000/svg">
<path d="M22.6455 2.6665H9.33329C5.67192 2.6665 2.66663 5.6718 2.66663 9.35433V22.6665C2.66663 26.3279 5.67192 29.3332 9.33329 29.3332H22.6455C26.328 29.3332 29.3333 26.3279 29.3333 22.6453V9.35433C29.3333 5.6718 26.328 2.6665 22.6455 2.6665ZM19.5767 15.9998H17.0582V24.2538H13.8836V15.9998H12.1904V12.6136H13.6719V11.1744C13.6719 9.81994 14.3492 7.68238 17.2063 7.68238H19.8095V10.4972H17.9682C17.6719 10.4972 17.2698 10.6877 17.2698 11.3438V12.6136H19.873L19.5767 15.9998Z" fill="white"/>
</svg>
