<svg width="33" height="32" viewBox="0 0 33 32" fill="none" xmlns="http://www.w3.org/2000/svg">
<path d="M18.6913 14.2856C18.1626 13.5448 17.2955 13.058 16.3228 13.058C15.35 13.058 14.483 13.5448 13.9543 14.2856C13.6159 14.7723 13.4044 15.3649 13.4044 15.9998C13.4044 17.6083 14.7156 18.9205 16.3228 18.9205C17.93 18.9205 19.2411 17.6083 19.2411 15.9998C19.2411 15.3649 19.0296 14.7723 18.6913 14.2856Z" fill="white"/>
<path d="M20.5311 14.3067C20.7425 14.73 20.8694 15.4072 20.8694 15.9998C20.8694 18.4972 18.8393 20.5501 16.3228 20.5501C13.8062 20.5501 11.7761 18.5184 11.7761 15.9998C11.7761 15.3861 11.903 14.73 12.1145 14.3067H9.55564V21.1004C9.55564 21.9893 10.3381 22.7723 11.2263 22.7723H21.4192C22.3074 22.7723 23.0899 21.9893 23.0899 21.1004V14.3067H20.5311Z" fill="white"/>
<path d="M22.3286 9.6083H19.8755V12.4231H22.6669V9.58714L22.3286 9.6083Z" fill="white"/>
<path d="M22.963 2.6665H9.68253C6.00291 2.6665 3 5.67179 3 9.35433V22.6665C3 26.3279 6.00291 29.3332 9.68253 29.3332H22.9841C26.6638 29.3332 29.6667 26.3279 29.6667 22.6453V9.35433C29.6455 5.67179 26.6426 2.6665 22.963 2.6665ZM24.5702 21.1004C24.5702 22.8781 23.1956 24.2538 21.4192 24.2538H11.2263C9.44991 24.2538 8.07534 22.8781 8.07534 21.1004V10.8993C8.07534 9.12153 9.44991 7.74587 11.2263 7.74587H21.4192C23.1956 7.74587 24.5702 9.12153 24.5702 10.8993V21.1004Z" fill="white"/>
</svg>
