<svg width="33" height="32" viewBox="0 0 33 32" fill="none" xmlns="http://www.w3.org/2000/svg">
<path d="M23.2964 2.6665H10.0159C6.33628 2.6665 3.33337 5.6718 3.33337 9.35433V22.6665C3.33337 26.3279 6.33628 29.3332 10.0159 29.3332H23.3175C26.9971 29.3332 30 26.3279 30 22.6453V9.35433C29.9789 5.6718 26.976 2.6665 23.2964 2.6665ZM12.2152 24.2538H8.40871V13.2485H12.2152V24.2538ZM10.2908 11.5554C9.21231 11.5554 8.34527 10.6877 8.34527 9.6083C8.34527 8.52894 9.21231 7.66121 10.2908 7.66121C11.3693 7.66121 12.2364 8.52894 12.2364 9.6083C12.2152 10.6877 11.3482 11.5554 10.2908 11.5554ZM24.9247 24.2538H24.9036H21.7315V18.9205C21.7315 17.6295 21.5623 15.9787 19.8071 15.9787C18.0096 15.9787 17.7135 17.3755 17.7135 18.8358V24.2538H14.5414V13.2485H17.502V14.73H17.5866C18.0519 13.8834 19.1304 13.2274 20.8221 13.2274C24.3114 13.2274 24.9247 15.2379 24.9247 18.2221V24.2538Z" fill="white"/>
</svg>
