<svg width="32" height="32" viewBox="0 0 32 32" fill="none" xmlns="http://www.w3.org/2000/svg">
<path d="M14.2857 13.3755V18.2432L18.7725 15.8305L14.2857 13.3755Z" fill="white"/>
<path d="M22.6455 2.6665H9.33335C5.67198 2.6665 2.66669 5.6718 2.66669 9.35433V22.6665C2.66669 26.3279 5.67198 29.3332 9.33335 29.3332H22.6455C26.3281 29.3332 29.3334 26.3279 29.3334 22.6453V9.35433C29.3334 5.6718 26.3281 2.6665 22.6455 2.6665ZM24.254 16.6559C24.254 18.0527 24.127 19.4707 24.127 19.4707C24.127 19.4707 23.9789 20.6559 23.4921 21.185C22.8572 21.8834 22.1588 21.8834 21.8413 21.9258C19.5132 22.0951 16.0212 22.1162 16.0212 22.1162C16.0212 22.1162 11.6826 22.0527 10.3492 21.9258C9.98944 21.8623 9.14288 21.8834 8.50796 21.185C8.00002 20.6559 7.87304 19.4707 7.87304 19.4707C7.87304 19.4707 7.74605 18.0527 7.74605 16.6559V15.3438C7.74605 13.9469 7.87304 12.5289 7.87304 12.5289C7.87304 12.5289 8.02118 11.3438 8.50796 10.8147C9.14288 10.1162 9.84129 10.0951 10.1588 10.0527C12.508 9.88344 16 9.86227 16 9.86227C16 9.86227 19.4921 9.88344 21.8201 10.0527C22.1376 10.0951 22.8572 10.1162 23.4921 10.7935C24 11.3226 24.127 12.5289 24.127 12.5289C24.127 12.5289 24.254 13.9469 24.254 15.3438V16.6559Z" fill="white"/>
</svg>
